<svg width="24" height="25" viewBox="0 0 24 25" fill="none" xmlns="http://www.w3.org/2000/svg">
<path d="M16.59 8.52531L10 15.1153L6.41 11.5353L5 12.9453L10 17.9453L18 9.94531L16.59 8.52531ZM12 2.94531C6.48 2.94531 2 7.42531 2 12.9453C2 18.4653 6.48 22.9453 12 22.9453C17.52 22.9453 22 18.4653 22 12.9453C22 7.42531 17.52 2.94531 12 2.94531ZM12 20.9453C7.58 20.9453 4 17.3653 4 12.9453C4 8.52531 7.58 4.94531 12 4.94531C16.42 4.94531 20 8.52531 20 12.9453C20 17.3653 16.42 20.9453 12 20.9453Z" fill="black"/>
</svg>
