<svg width="343" height="343" viewBox="0 0 343 343" fill="none" xmlns="http://www.w3.org/2000/svg">
<path d="M299.709 137.522H237.798C234.646 137.522 232.09 140.078 232.09 143.23V231.762C232.09 234.914 234.646 237.469 237.798 237.469H299.709C302.861 237.469 305.417 234.914 305.417 231.762V143.23C305.417 140.078 302.861 137.522 299.709 137.522Z" stroke="#CCDDE2" stroke-width="1.39104" stroke-miterlimit="10"/>
<path d="M297.038 147.819H241.221C239.645 147.819 238.367 149.097 238.367 150.673V162.544C238.367 164.12 239.645 165.398 241.221 165.398H297.038C298.614 165.398 299.891 164.12 299.891 162.544V150.673C299.891 149.097 298.614 147.819 297.038 147.819Z" stroke="#CCDDE2" stroke-width="1.39104" stroke-miterlimit="10"/>
<path d="M268.754 155.225C269.758 155.225 270.571 154.411 270.571 153.407C270.571 152.403 269.758 151.589 268.754 151.589C267.75 151.589 266.936 152.403 266.936 153.407C266.936 154.411 267.75 155.225 268.754 155.225Z" fill="#E85A34"/>
<path d="M263.674 161.632C263.674 160.285 264.21 158.992 265.162 158.04C266.115 157.087 267.407 156.552 268.754 156.552C270.101 156.552 271.394 157.087 272.346 158.04C273.299 158.992 273.834 160.285 273.834 161.632H263.674Z" fill="#E85A34"/>
<path d="M269.124 184.239C267.187 184.24 265.294 184.815 263.684 185.891C262.075 186.967 260.82 188.497 260.079 190.286C259.338 192.076 259.145 194.045 259.523 195.944C259.902 197.843 260.835 199.588 262.204 200.957C263.574 202.326 265.319 203.259 267.218 203.636C269.118 204.014 271.087 203.82 272.876 203.078C274.665 202.337 276.194 201.082 277.27 199.472C278.346 197.861 278.92 195.968 278.92 194.032C278.92 192.745 278.667 191.472 278.174 190.283C277.682 189.095 276.961 188.015 276.051 187.106C275.141 186.197 274.061 185.475 272.873 184.983C271.684 184.492 270.41 184.238 269.124 184.239ZM269.124 201.461C268.756 201.443 268.41 201.284 268.156 201.018C267.902 200.751 267.761 200.397 267.761 200.029C267.761 199.661 267.902 199.307 268.156 199.04C268.41 198.774 268.756 198.615 269.124 198.597C269.492 198.615 269.838 198.774 270.092 199.04C270.346 199.307 270.488 199.661 270.488 200.029C270.488 200.397 270.346 200.751 270.092 201.018C269.838 201.284 269.492 201.443 269.124 201.461ZM270.932 190.447C270.63 192.571 270.376 194.8 269.741 196.865C269.59 197.362 268.657 197.362 268.507 196.865C268.06 195.312 267.716 193.732 267.478 192.135C267.282 190.972 266.603 189.089 267.251 187.961C267.824 186.932 269.436 186.829 270.372 187.357C271.522 188.005 271.069 189.391 270.932 190.447Z" fill="#E85A34"/>
<path d="M161.975 157.365C158.541 156.341 154.881 156.359 151.458 157.415C148.034 158.471 145.001 160.519 142.741 163.299C140.482 166.08 139.097 169.467 138.763 173.035C138.429 176.601 139.161 180.187 140.865 183.339C142.569 186.49 145.169 189.066 148.337 190.74C151.505 192.413 155.098 193.11 158.661 192.741C162.225 192.373 165.6 190.956 168.358 188.67C171.116 186.383 173.135 183.33 174.158 179.897C174.837 177.617 175.062 175.226 174.817 172.86C174.573 170.494 173.865 168.199 172.733 166.107C171.602 164.015 170.069 162.166 168.223 160.666C166.377 159.166 164.254 158.044 161.975 157.365ZM152.875 187.892C152.22 187.676 151.676 187.213 151.357 186.603C151.039 185.992 150.97 185.281 151.167 184.621C151.364 183.96 151.81 183.403 152.412 183.067C153.013 182.73 153.722 182.641 154.387 182.819C154.73 182.91 155.05 183.069 155.33 183.286C155.609 183.504 155.843 183.775 156.016 184.084C156.188 184.393 156.298 184.734 156.337 185.086C156.375 185.438 156.343 185.794 156.242 186.134C156.141 186.474 155.973 186.789 155.747 187.063C155.522 187.336 155.244 187.561 154.93 187.725C154.616 187.889 154.272 187.988 153.919 188.017C153.566 188.045 153.211 188.003 152.875 187.892ZM161.896 169.322C160.239 172.927 158.606 176.744 156.408 180.068C155.879 180.871 154.223 180.377 154.219 179.416C154.247 176.432 154.477 173.452 154.905 170.498C155.173 168.341 154.964 164.643 156.709 162.983C158.26 161.498 161.168 162.136 162.558 163.563C164.228 165.305 162.698 167.525 161.896 169.322Z" fill="#E85A34"/>
<path d="M111.383 197.472C110.127 198.75 109.278 200.372 108.944 202.133C108.609 203.894 108.805 205.714 109.505 207.364C110.205 209.014 111.379 210.419 112.877 211.401C114.376 212.384 116.132 212.9 117.924 212.885C119.716 212.87 121.464 212.324 122.945 211.315C124.427 210.307 125.576 208.882 126.248 207.22C126.92 205.559 127.084 203.736 126.719 201.981C126.355 200.226 125.479 198.619 124.201 197.362C122.486 195.677 120.173 194.742 117.769 194.763C115.365 194.784 113.068 195.758 111.383 197.472ZM122.75 208.643C122.628 208.768 122.483 208.866 122.323 208.934C122.163 209.003 121.991 209.038 121.817 209.04C121.643 209.041 121.471 209.009 121.31 208.944C121.148 208.879 121.001 208.782 120.877 208.661C120.753 208.539 120.654 208.394 120.586 208.234C120.518 208.074 120.482 207.902 120.481 207.728C120.479 207.554 120.512 207.381 120.577 207.22C120.642 207.059 120.738 206.912 120.86 206.788C121.106 206.537 121.442 206.395 121.793 206.391C122.144 206.388 122.482 206.525 122.733 206.771C122.983 207.017 123.126 207.352 123.129 207.704C123.133 208.055 122.996 208.393 122.75 208.643ZM116.655 200.312C117.859 201.89 119.166 203.505 120.116 205.262C120.345 205.683 119.742 206.291 119.316 206.078C118.007 205.363 116.746 204.561 115.543 203.677C114.648 203.056 112.967 202.281 112.642 201.118C112.347 200.089 113.328 198.943 114.267 198.672C115.423 198.336 116.044 199.533 116.655 200.312Z" fill="#E85A34"/>
<path d="M244.522 173.246H292.36" stroke="#CCDDE2" stroke-width="1.39104" stroke-miterlimit="10"/>
<path d="M244.522 177.955H292.36" stroke="#CCDDE2" stroke-width="1.39104" stroke-miterlimit="10"/>
<path d="M244.522 208.276H292.36" stroke="#CCDDE2" stroke-width="1.39104" stroke-miterlimit="10"/>
<path d="M255.631 212.732H281.247" stroke="#CCDDE2" stroke-width="1.39104" stroke-miterlimit="10"/>
<path d="M305.421 202.096C309.64 207.398 313.653 213.97 317.282 222.068C339.378 271.412 311.76 296.455 311.76 296.455" stroke="#CCDDE2" stroke-width="1.39104" stroke-miterlimit="10"/>
<path d="M74.6336 241.222C74.6336 241.222 41.8463 204.03 82.7319 185.614C123.617 167.199 131.712 164.64 128.762 145.483C125.813 126.327 148.999 106.821 185.464 119.71C221.928 132.6 222.659 156.892 220.072 175.671C218.604 186.376 224.679 188.948 232.077 188.41" stroke="#CCDDE2" stroke-width="1.39104" stroke-miterlimit="10"/>
<path d="M303.109 312.504C303.026 314.557 302.494 316.567 301.552 318.393C301.515 318.484 301.471 318.572 301.421 318.657C299.768 321.627 297.455 324.179 294.661 326.114L294.561 326.183C292.039 327.87 289.201 329.031 286.219 329.596C286.219 329.623 286.219 329.596 286.219 329.596H317.961C317.961 329.596 313.714 269.039 274.688 239.575C236.92 211.065 201.56 224.806 199.317 225.725C200.012 227.687 200.323 229.764 200.233 231.844C200.233 231.844 203.073 233.322 203.546 238.615C204.019 243.907 205.007 258.622 195.51 261.393C195.51 261.393 186.983 261.184 184.729 257.912C182.476 254.64 181.934 255.305 181.049 256.135C180.363 256.763 176.223 259.006 174.312 260.035C174.554 260.047 174.793 260.08 175.029 260.135C175.029 260.135 176.123 269.368 189.511 283.839C189.964 284.317 190.392 284.819 190.793 285.342C192.815 287.109 195.087 288.913 197.609 290.754L212.886 301.933C213.231 302.226 213.64 302.434 214.08 302.54C214.934 302.755 215.828 302.763 216.686 302.564C218.463 302.221 230.595 300.982 238.446 300.2C238.625 300.2 238.813 300.166 238.988 300.146L240.017 300.046C240.182 300.046 240.36 300.012 240.504 300.002L241.431 299.912C241.883 299.868 242.291 299.823 242.669 299.792L243.698 299.693C244.607 299.604 245.145 299.549 245.19 299.549C247.06 299.496 248.925 299.314 250.77 299.007C252.537 298.664 254.149 298.112 254.567 297.196C254.647 297.003 254.676 296.793 254.653 296.585C254.559 296.002 254.315 295.454 253.947 294.994C252.334 292.829 248.589 290.974 248.315 290.84C248.307 290.837 248.298 290.837 248.291 290.84L248.215 290.785L225.92 273.464H225.896C225.896 273.464 229.254 237.641 259.853 246.456C259.853 246.456 259.997 246.555 260.261 246.775C261.455 247.694 265.211 250.74 270.733 256.43C270.877 256.585 271.031 256.739 271.186 256.904C271.772 257.5 272.349 258.121 272.921 258.728C276.797 262.872 281.383 268.151 286.442 274.733L286.477 274.767C292.273 282.313 296.451 289.228 299.168 295.347V295.368C302.107 302.018 303.345 307.716 303.102 312.26C303.11 312.341 303.112 312.423 303.109 312.504ZM210.818 250.932C209.912 240.494 214.992 236.715 215.277 236.505C208.053 249.574 221.451 269.605 221.921 270.38C221.537 270.058 211.723 261.366 210.818 250.932Z" fill="#202020"/>
<path d="M191.63 248.884C191.254 249.161 190.863 249.415 190.457 249.646L188.104 245.53C193.531 242.755 195.054 237.864 192.666 235.178C191.999 234.443 191.138 233.911 190.183 233.641C187.782 232.914 186.118 233.984 184.99 235.421C184.069 236.671 183.394 238.084 183 239.585L181.855 226.373L181.766 225.344C181.766 225.344 179.269 224.106 172.505 225.21C165.741 226.315 164.496 230.05 161.59 228.393C158.685 226.737 157.039 226.87 157.039 226.87C156.212 229.906 154 229.906 154 229.906C153.476 229.843 152.961 229.717 152.467 229.532C149.328 226.648 148.478 221.643 148.478 221.643C151.77 221.235 152.024 218.066 151.647 215.469C153.472 216.553 156.044 216.628 159.656 214.31C170.018 207.683 180.644 211.271 184.379 211.823C186.046 212.067 187.871 211.48 189.384 210.794C189.579 211.144 189.851 211.445 190.179 211.676C192.701 213.432 194.78 215.75 196.254 218.446C205.978 236.622 195.318 246.274 191.63 248.884Z" fill="#E85A34"/>
<path d="M152.813 329.602H156.723C158.395 329.601 159.999 328.935 161.181 327.753C162.364 326.57 163.029 324.967 163.031 323.295V318.918C163.031 318.519 162.952 318.124 162.799 317.756C162.647 317.387 162.423 317.052 162.141 316.77C161.858 316.488 161.523 316.265 161.155 316.113C160.786 315.96 160.391 315.882 159.992 315.882H136.606C136.607 316.814 136.424 317.737 136.068 318.597C135.712 319.458 135.189 320.24 134.53 320.899C133.871 321.557 133.089 322.079 132.228 322.435C131.367 322.791 130.445 322.974 129.513 322.972H45.0081C45.0087 324.73 45.7078 326.416 46.9508 327.659C48.1942 328.903 49.88 329.601 51.6382 329.602H166.2C166.35 329.603 166.498 329.574 166.637 329.517C166.775 329.459 166.901 329.376 167.006 329.27C167.112 329.164 167.196 329.038 167.253 328.9C167.31 328.762 167.339 328.613 167.339 328.464V321.36C167.339 319.98 167.887 318.657 168.863 317.681C169.839 316.705 171.162 316.157 172.542 316.157C173.922 316.157 175.246 316.705 176.222 317.681C177.197 318.657 177.746 319.98 177.746 321.36V328.464C177.745 328.613 177.774 328.761 177.831 328.899C177.888 329.037 177.971 329.163 178.077 329.269C178.182 329.374 178.307 329.458 178.446 329.516C178.584 329.573 178.731 329.602 178.881 329.602H317.961C317.961 329.602 313.714 269.032 274.688 239.572C236.92 211.062 201.56 224.802 199.317 225.721L199.207 225.763" stroke="#202020" stroke-width="1.39104" stroke-miterlimit="10"/>
<path d="M160.213 240.546C160.211 240.927 160.097 241.299 159.884 241.615C159.672 241.931 159.37 242.177 159.019 242.322C158.666 242.467 158.279 242.504 157.906 242.429C157.532 242.354 157.189 242.17 156.92 241.901C156.652 241.631 156.468 241.288 156.394 240.915C156.32 240.541 156.358 240.154 156.503 239.802C156.649 239.45 156.896 239.15 157.212 238.938C157.528 238.726 157.9 238.612 158.281 238.611C158.43 238.612 158.579 238.631 158.724 238.666C158.524 238.729 158.35 238.855 158.226 239.024C158.103 239.193 158.037 239.397 158.038 239.606C158.037 239.737 158.062 239.868 158.111 239.99C158.161 240.111 158.234 240.222 158.326 240.315C158.419 240.408 158.529 240.483 158.65 240.534C158.771 240.584 158.901 240.611 159.033 240.611C159.273 240.606 159.504 240.518 159.685 240.36C159.867 240.203 159.988 239.987 160.027 239.75C160.145 239.999 160.208 240.27 160.213 240.546Z" fill="#202020"/>
<path d="M173.592 241.084C173.593 241.467 173.48 241.842 173.268 242.16C173.056 242.479 172.754 242.727 172.401 242.874C172.047 243.021 171.658 243.06 171.282 242.986C170.907 242.912 170.562 242.727 170.291 242.457C170.02 242.187 169.836 241.842 169.761 241.467C169.686 241.091 169.724 240.702 169.87 240.348C170.016 239.995 170.264 239.693 170.583 239.48C170.901 239.267 171.275 239.153 171.658 239.153C171.75 239.153 171.842 239.163 171.932 239.184C171.761 239.263 171.616 239.389 171.515 239.548C171.413 239.707 171.359 239.891 171.359 240.079C171.348 240.343 171.441 240.601 171.619 240.796C171.797 240.991 172.046 241.107 172.309 241.119C172.573 241.131 172.831 241.037 173.026 240.859C173.221 240.681 173.337 240.432 173.349 240.169C173.507 240.448 173.591 240.763 173.592 241.084Z" fill="#202020"/>
<path d="M189.024 208.078C188.801 209.58 189.079 210.897 190.184 211.679C192.705 213.436 194.784 215.753 196.258 218.45C207.858 240.124 190.458 249.663 190.458 249.663L188.105 245.547C194.879 242.089 195.572 235.319 190.184 233.658C184.795 231.998 183.001 239.603 183.001 239.603L181.766 225.351C181.766 225.351 179.269 224.113 172.505 225.217C165.741 226.322 164.496 230.057 161.591 228.4C158.686 226.744 157.039 226.877 157.039 226.877C156.213 229.913 154 229.913 154 229.913C147.518 229.086 145.995 220.117 145.995 220.117C149.284 219.705 149.538 216.536 149.164 213.943C150.986 215.027 153.561 215.106 157.173 212.784C167.535 206.157 178.161 209.748 181.893 210.3C184.473 210.674 187.433 209.096 189.024 208.078Z" stroke="#202020" stroke-width="1.39104" stroke-linecap="round" stroke-linejoin="round"/>
<path d="M195.006 315.56L197.569 314.531L199.489 319.714L199.188 329.119L196.591 329.589L186.737 329.163C186.737 329.163 187.423 323.428 189.518 320.702C191.614 317.975 195.006 315.56 195.006 315.56Z" fill="#E85A34"/>
<path d="M150.138 233.082C150.138 233.082 152.762 228.373 158.284 228.863" stroke="#202020" stroke-width="1.39104" stroke-miterlimit="10"/>
<path d="M169.099 228.863C169.099 228.863 175.41 227.447 177.619 230.956" stroke="#202020" stroke-width="1.39104" stroke-miterlimit="10"/>
<path d="M178.878 250.184C178.878 250.184 175.105 247.999 172.344 251.673" stroke="#202020" stroke-width="1.39104" stroke-miterlimit="10"/>
<path d="M155.036 229.618C155.036 229.618 152.35 261.212 172.378 260.629C175.808 260.529 179.217 258.276 182.476 254.65" stroke="#202020" stroke-width="1.39104" stroke-miterlimit="10"/>
<path d="M190.458 257.524L182.476 254.65C182.476 254.65 184.455 260.975 194.258 261.459C204.061 261.942 207.35 239.445 200.147 230.393" stroke="#202020" stroke-width="1.39104" stroke-linejoin="round"/>
<path d="M221.663 320.904C221.663 320.904 214.347 326.841 219.317 329.602" stroke="#202020" stroke-width="1.39104" stroke-miterlimit="10"/>
<path d="M216.005 315.378C216.005 315.378 203.314 322.561 214.211 329.602" stroke="#202020" stroke-width="1.39104" stroke-miterlimit="10"/>
<path d="M211.724 309.856C211.724 309.856 194.88 317.745 207.859 329.602" stroke="#202020" stroke-width="1.39104" stroke-miterlimit="10"/>
<path d="M282.56 329.602C282.56 329.602 302.996 329.602 303.271 309.856C303.545 290.109 263.644 240.525 237.823 233.628C212.002 226.73 210.894 245.633 210.894 246.408C210.894 247.183 209.378 255.326 216.005 264.014C221.122 270.73 243.726 287.496 253.755 294.781C254.124 295.049 254.402 295.423 254.553 295.853C254.703 296.283 254.72 296.748 254.599 297.188C254.479 297.627 254.228 298.019 253.879 298.313C253.531 298.606 253.101 298.786 252.647 298.828L208.291 303.089H208.263C207.845 303.164 192.19 306.052 187.422 310.957C187.422 310.957 184.75 312.936 186.133 315.975C187.515 319.014 191.761 318.012 191.878 317.899" stroke="#202020" stroke-width="1.39104" stroke-miterlimit="10"/>
<path opacity="0.26" d="M171.662 244.672C174.712 244.672 177.184 242.2 177.184 239.15C177.184 236.1 174.712 233.628 171.662 233.628C168.612 233.628 166.139 236.1 166.139 239.15C166.139 242.2 168.612 244.672 171.662 244.672Z" fill="white"/>
<path opacity="0.26" d="M157.647 244.127C160.697 244.127 163.169 241.654 163.169 238.605C163.169 235.555 160.697 233.082 157.647 233.082C154.597 233.082 152.125 235.555 152.125 238.605C152.125 241.654 154.597 244.127 157.647 244.127Z" fill="white"/>
<path d="M205.381 314.689C203.44 314.147 200.267 313.66 196.998 314.709C195.4 315.224 193.925 316.064 192.666 317.176C192.391 317.416 192.127 317.659 191.874 317.903C191.326 318.439 190.81 319.006 190.327 319.601C190.263 319.679 190.173 319.732 190.073 319.748C188.855 319.916 180.839 321.185 180.88 325.236C180.918 328.875 184.904 329.472 186.276 329.568C186.332 329.573 186.389 329.567 186.443 329.549C186.497 329.531 186.547 329.502 186.589 329.464C186.631 329.426 186.665 329.38 186.688 329.328C186.712 329.276 186.724 329.22 186.725 329.163C186.725 327.867 187.02 323.802 190.227 319.714" stroke="#202020" stroke-width="1.39104" stroke-miterlimit="10"/>
<path d="M133.159 286.1C134.099 293.677 128.21 297.103 121.772 297.611" stroke="#202020" stroke-width="1.39104" stroke-miterlimit="10"/>
<path d="M112.414 296.03C109.96 294.704 107.971 292.655 106.719 290.162C105.466 287.669 105.009 284.851 105.41 282.09C106.439 274.801 112.613 269.21 118.657 265.664C131.348 258.217 159.947 263.606 164.753 264.703C168.437 265.547 171.517 262.666 172.765 261.273C172.818 261.214 172.887 261.172 172.964 261.151C173.04 261.129 173.121 261.131 173.197 261.154C173.273 261.178 173.34 261.222 173.391 261.283C173.442 261.344 173.475 261.417 173.486 261.496C176.123 276.931 206.757 297.882 213.843 302.571" stroke="#202020" stroke-width="1.39104" stroke-miterlimit="10"/>
<path d="M140.887 280.859L130.745 287.153C130.14 287.529 129.464 287.775 128.759 287.873C128.054 287.972 127.336 287.922 126.651 287.726C125.966 287.53 125.331 287.193 124.784 286.736C124.238 286.279 123.794 285.713 123.48 285.074C122.914 283.926 122.802 282.607 123.166 281.38C123.529 280.153 124.342 279.108 125.442 278.454L140.877 269.258" stroke="#202020" stroke-width="1.39104" stroke-miterlimit="10"/>
<path d="M171.662 244.672C174.712 244.672 177.184 242.2 177.184 239.15C177.184 236.1 174.712 233.628 171.662 233.628C168.612 233.628 166.139 236.1 166.139 239.15C166.139 242.2 168.612 244.672 171.662 244.672Z" stroke="#202020" stroke-width="1.39104" stroke-miterlimit="10"/>
<path d="M157.647 243.3C160.24 243.3 162.342 241.198 162.342 238.604C162.342 236.011 160.24 233.909 157.647 233.909C155.053 233.909 152.951 236.011 152.951 238.604C152.951 241.198 155.053 243.3 157.647 243.3Z" stroke="white" stroke-width="1.39104" stroke-miterlimit="10"/>
<path d="M157.647 244.127C160.697 244.127 163.169 241.654 163.169 238.605C163.169 235.555 160.697 233.082 157.647 233.082C154.597 233.082 152.125 235.555 152.125 238.605C152.125 241.654 154.597 244.127 157.647 244.127Z" stroke="#202020" stroke-width="1.39104" stroke-miterlimit="10"/>
<path d="M166.167 238.605H163.169" stroke="#202020" stroke-width="1.39104" stroke-miterlimit="10"/>
<path d="M166.166 246.408H164.191C164.067 246.408 163.944 246.381 163.831 246.328C163.719 246.275 163.619 246.198 163.54 246.102C163.46 246.007 163.403 245.895 163.372 245.774C163.341 245.654 163.337 245.528 163.361 245.406L164.667 238.605" stroke="#202020" stroke-width="1.39104" stroke-miterlimit="10"/>
<path d="M126.527 265.256C126.527 265.256 119.485 266.775 117.001 277.408C115.492 283.863 113.421 292.099 112.028 297.573C111.849 298.275 111.834 299.009 111.981 299.718C112.13 300.428 112.438 301.094 112.882 301.666C113.327 302.238 113.897 302.701 114.547 303.019C115.198 303.338 115.913 303.504 116.638 303.504C117.72 303.504 118.769 303.135 119.614 302.458C120.458 301.782 121.047 300.838 121.282 299.782L124.229 286.563" stroke="#202020" stroke-width="1.39104" stroke-miterlimit="10"/>
<path d="M132.963 290.109C132.963 290.109 140.355 285.692 154.915 290.109C169.476 294.527 186.214 297.525 191.736 285.808" stroke="#202020" stroke-width="1.39104" stroke-miterlimit="10"/>
<path d="M197.003 314.709C197.003 314.709 202.148 320.581 199.02 329.602" stroke="#202020" stroke-width="1.39104" stroke-miterlimit="10"/>
<path d="M26.9875 241.688H108.279C110.897 241.685 113.44 242.562 115.499 244.18C117.558 245.798 119.012 248.061 119.628 250.606L132.57 304.203C132.919 305.649 132.935 307.156 132.618 308.609C132.301 310.063 131.658 311.426 130.737 312.595C129.817 313.764 128.643 314.709 127.305 315.358C125.967 316.008 124.498 316.345 123.01 316.345H41.9286C39.3153 316.348 36.7767 315.473 34.7204 313.86C32.6643 312.247 31.2093 309.99 30.589 307.451L17.4384 253.865C17.0833 252.417 17.0619 250.907 17.3759 249.45C17.69 247.993 18.3311 246.626 19.251 245.454C20.1708 244.28 21.3453 243.332 22.6856 242.68C24.0259 242.027 25.4969 241.688 26.9875 241.688Z" fill="#E85A34"/>
<path d="M29.9477 243.993H106.217C108.674 243.996 111.059 244.824 112.99 246.343C114.921 247.862 116.286 249.985 116.867 252.373L129.016 302.653C129.344 304.01 129.36 305.423 129.063 306.786C128.765 308.15 128.162 309.429 127.299 310.525C126.436 311.622 125.335 312.508 124.079 313.118C122.824 313.727 121.446 314.044 120.05 314.044H43.966C41.5166 314.039 39.1396 313.214 37.2127 311.702C35.2857 310.19 33.9202 308.077 33.3331 305.699L20.9851 255.415C20.6517 254.056 20.6316 252.64 20.9264 251.273C21.2211 249.905 21.823 248.623 22.6865 247.523C23.5499 246.422 24.6524 245.532 25.9104 244.921C27.1684 244.31 28.549 243.992 29.9477 243.993Z" fill="#E85A34"/>
<path d="M26.9875 241.688H108.279C110.897 241.685 113.44 242.562 115.499 244.18C117.558 245.798 119.012 248.061 119.628 250.606L132.57 304.203C132.919 305.649 132.935 307.156 132.618 308.609C132.301 310.063 131.658 311.426 130.737 312.595C129.817 313.764 128.643 314.709 127.305 315.358C125.967 316.008 124.498 316.345 123.01 316.345H41.9286C39.3153 316.348 36.7767 315.473 34.7204 313.86C32.6643 312.247 31.2093 309.99 30.589 307.451L17.4384 253.865C17.0833 252.417 17.0619 250.907 17.3759 249.45C17.69 247.993 18.3311 246.626 19.251 245.454C20.1708 244.28 21.3453 243.332 22.6856 242.68C24.0259 242.027 25.4969 241.688 26.9875 241.688Z" stroke="#202020" stroke-width="1.39104" stroke-miterlimit="10"/>
<path d="M65.0599 277.388L60.2133 254.794C60.1128 254.316 59.8511 253.888 59.4721 253.58C59.093 253.272 58.6197 253.104 58.1313 253.103H34.1488C33.8262 253.104 33.508 253.178 33.2183 253.32C32.9286 253.462 32.675 253.668 32.4767 253.923C32.2784 254.177 32.1406 254.473 32.0738 254.789C32.0069 255.105 32.0127 255.431 32.0908 255.744L37.6988 278.602C37.7684 278.92 37.9169 279.216 38.1309 279.463C38.323 279.707 38.5679 279.904 38.8471 280.04C39.1263 280.176 39.4326 280.247 39.743 280.248H39.7876L62.9984 279.974C63.3119 279.969 63.6203 279.895 63.9019 279.758C64.1835 279.62 64.4315 279.423 64.6277 279.178C64.8277 278.93 64.97 278.641 65.0448 278.331C65.1195 278.022 65.1247 277.699 65.0599 277.388ZM33.6926 255.339C33.6752 255.272 33.6735 255.201 33.6878 255.133C33.7021 255.064 33.7319 255 33.7749 254.945C33.8189 254.888 33.8755 254.841 33.9403 254.809C34.0051 254.777 34.0764 254.76 34.1488 254.76H58.1313C58.2393 254.759 58.3443 254.796 58.428 254.864C58.512 254.933 58.5696 255.028 58.5909 255.134L62.2816 272.342C49.9576 260.443 48.5616 274.095 48.5616 274.095C41.6055 270.473 39.5955 274.438 39.0124 277.048L33.6926 255.339Z" fill="white"/>
<path d="M40.6177 263.541C41.9554 263.126 42.59 261.352 42.0412 259.579C41.4924 257.806 39.9592 256.708 38.6112 257.123C37.2632 257.538 36.6389 259.311 37.1912 261.081C37.7434 262.851 39.2835 263.956 40.6177 263.541Z" fill="white"/>
<path d="M46.4903 263.136H54.3587C55.3362 263.136 56.3172 263.136 57.2948 263.136H57.4354C57.7108 263.143 57.9846 263.092 58.238 262.985C58.4136 262.898 58.5625 262.766 58.6702 262.603C58.7776 262.439 58.84 262.25 58.8503 262.055C58.8609 261.859 58.8191 261.665 58.7296 261.491C58.64 261.317 58.5059 261.17 58.3409 261.064C58.1564 260.98 57.988 260.864 57.8436 260.721C57.7482 260.571 57.6831 260.403 57.6515 260.227C57.4701 259.731 57.1188 259.314 56.6602 259.051C56.3268 258.826 55.9512 258.672 55.5565 258.596C55.1617 258.519 54.7556 258.524 54.3621 258.608C53.9745 258.706 53.6192 258.905 53.3331 259.185C53.0896 259.425 53.0416 259.747 52.8529 260.015C52.7294 260.19 52.6506 260.135 52.4825 260.039C52.3144 259.943 52.2218 259.871 52.0846 259.802C51.814 259.657 51.5331 259.532 51.2443 259.428C50.656 259.21 50.0287 259.118 49.4023 259.157C48.3013 259.243 47.2037 259.898 46.8196 260.934C46.4735 260.939 46.1404 261.067 45.8801 261.295C45.6197 261.523 45.4496 261.837 45.3995 262.179C45.3769 262.311 45.3855 262.447 45.4249 262.575C45.4644 262.703 45.533 262.82 45.6259 262.916C45.8763 263.096 46.185 263.174 46.4903 263.136Z" fill="white"/>
<path d="M102.9 262.649L102.269 260.052C101.846 258.307 100.847 256.754 99.4353 255.644C98.0232 254.534 96.2787 253.932 94.4828 253.933H85.8151C84.8263 253.932 83.8504 254.159 82.9634 254.597C82.0768 255.035 81.303 255.671 80.702 256.457C80.1015 257.242 79.6902 258.156 79.5002 259.126C79.3102 260.097 79.3465 261.098 79.6068 262.052L80.3237 264.69C80.7816 266.387 81.7863 267.885 83.1819 268.954C84.5776 270.022 86.2868 270.601 88.0446 270.6H96.6608C97.6339 270.599 98.5943 270.377 99.4693 269.951C100.344 269.525 101.111 268.906 101.712 268.14C102.313 267.374 102.732 266.482 102.938 265.531C103.143 264.58 103.13 263.594 102.9 262.649ZM93.368 263.29L90.4079 265.112C90.2937 265.184 90.1644 265.229 90.0303 265.243C89.8958 265.257 89.76 265.24 89.6334 265.193C89.5069 265.146 89.3926 265.07 89.3004 264.971C89.2081 264.873 89.1398 264.754 89.1011 264.625L87.9863 260.982C87.9393 260.82 87.9397 260.648 87.9863 260.487C88.0333 260.325 88.1253 260.18 88.2515 260.069C88.3777 259.958 88.5327 259.884 88.6991 259.857C88.8651 259.831 89.0356 259.852 89.1903 259.919L93.296 261.733C93.4428 261.799 93.5687 261.904 93.6596 262.037C93.7508 262.17 93.8036 262.325 93.8125 262.486C93.8215 262.646 93.7858 262.806 93.71 262.948C93.6338 263.09 93.5203 263.209 93.3817 263.29H93.368Z" fill="white"/>
<path d="M100.966 285.973H85.8018C85.1075 285.972 84.4287 285.769 83.8477 285.389C83.2666 285.009 82.8087 284.468 82.5295 283.832C82.4431 283.637 82.3964 283.426 82.3923 283.212C82.3958 282.798 82.5625 282.402 82.8561 282.111C83.1497 281.819 83.5462 281.655 83.9598 281.654H100.081C99.3228 282.937 99.707 284.711 100.966 285.973Z" fill="white"/>
<path d="M110.789 284.416C110.788 284.829 110.623 285.224 110.331 285.516C110.039 285.808 109.644 285.972 109.231 285.973H100.965C99.7062 284.711 99.3221 282.937 100.08 281.654H107.359C108.051 281.655 108.73 281.856 109.311 282.234C109.891 282.612 110.35 283.151 110.631 283.784C110.726 283.982 110.779 284.197 110.789 284.416Z" fill="#E85A34"/>
<path d="M106.978 285.973C106.935 286.055 106.886 286.135 106.83 286.209C105.746 287.688 103.4 287.825 101.579 286.494C101.361 286.336 101.156 286.162 100.965 285.973C99.7062 284.711 99.3221 282.937 100.08 281.654C100.123 281.573 100.172 281.495 100.228 281.421C101.301 279.933 103.658 279.802 105.469 281.123C105.688 281.285 105.896 281.462 106.089 281.654C107.359 282.917 107.726 284.69 106.978 285.973Z" fill="white"/>
<path d="M114.586 293.951C114.582 294.365 114.415 294.76 114.122 295.052C113.828 295.343 113.432 295.507 113.018 295.508H52.9176C53.686 294.219 53.3018 292.452 52.0396 291.193H111.176C111.87 291.193 112.548 291.395 113.129 291.775C113.71 292.154 114.167 292.695 114.445 293.33C114.534 293.525 114.581 293.737 114.586 293.951Z" fill="#E85A34"/>
<path d="M52.9188 295.491H45.4312C44.738 295.491 44.0595 295.29 43.4788 294.912C42.8978 294.534 42.4392 293.995 42.1589 293.361C42.0708 293.162 42.0238 292.947 42.0217 292.73C42.0211 292.525 42.0612 292.323 42.1394 292.134C42.2176 291.945 42.3322 291.774 42.4769 291.629C42.6216 291.484 42.7935 291.37 42.9828 291.292C43.1718 291.215 43.3745 291.175 43.579 291.176H52.0408C53.303 292.435 53.6872 294.201 52.9188 295.491Z" fill="white"/>
<path d="M52.9177 295.491C52.8827 295.575 52.8364 295.655 52.7805 295.728C51.7069 297.216 49.3505 297.343 47.536 296.023C47.3175 295.861 47.1114 295.683 46.9186 295.491C45.6667 294.229 45.2825 292.466 46.0302 291.176C46.0721 291.093 46.1215 291.014 46.1777 290.939C47.2616 289.461 49.6077 289.324 51.4291 290.651C51.6465 290.809 51.8506 290.985 52.0396 291.176C53.3018 292.435 53.686 294.201 52.9177 295.491Z" fill="white"/>
<path d="M58.2209 304.927H48.7061C48.0133 304.926 47.3352 304.725 46.7545 304.347C46.1738 303.969 45.7152 303.43 45.4339 302.797C45.3396 302.606 45.2857 302.396 45.2761 302.183C45.2772 301.769 45.4421 301.371 45.7354 301.078C46.0283 300.785 46.4255 300.62 46.8402 300.619H57.3257C56.5951 301.915 56.969 303.678 58.2209 304.927Z" fill="#E85A34"/>
<path d="M117.848 303.394C117.842 303.805 117.674 304.198 117.379 304.485C117.085 304.773 116.688 304.931 116.277 304.927H58.2206C56.9687 303.665 56.5845 301.902 57.3322 300.612H114.438C115.132 300.612 115.81 300.814 116.391 301.193C116.972 301.573 117.429 302.113 117.707 302.749C117.798 302.952 117.846 303.172 117.848 303.394Z" fill="white"/>
<path d="M64.23 304.927C64.1881 305.01 64.1387 305.09 64.0825 305.164C63.0089 306.652 60.6525 306.779 58.8414 305.458C58.6216 305.297 58.4141 305.119 58.2206 304.927C56.9687 303.665 56.5845 301.901 57.3322 300.612C57.3751 300.529 57.4245 300.45 57.4797 300.375C58.5636 298.897 60.9097 298.767 62.7311 300.087C62.9489 300.244 63.1533 300.42 63.3416 300.612C64.6038 301.884 64.988 303.658 64.23 304.927Z" fill="white"/>
<g opacity="0.21">
<path opacity="0.21" d="M65.8896 278.214L61.0533 255.621C60.9531 255.143 60.6914 254.714 60.3124 254.407C59.933 254.1 59.4593 253.932 58.9712 253.933H34.9853C34.6604 253.933 34.3401 254.008 34.0487 254.151C33.7573 254.294 33.5027 254.503 33.3046 254.76C33.1082 255.012 32.972 255.306 32.9066 255.618C32.8412 255.931 32.8483 256.255 32.9273 256.564L38.5353 279.425C38.6039 279.743 38.7514 280.039 38.9641 280.286C39.1568 280.53 39.4024 280.727 39.6823 280.862C39.9618 280.998 40.2688 281.068 40.5796 281.068H40.6345L63.8419 280.79C64.1547 280.786 64.4627 280.713 64.7436 280.576C65.0249 280.439 65.2722 280.242 65.4677 279.998C65.6649 279.75 65.8048 279.461 65.8779 279.153C65.9506 278.845 65.9547 278.524 65.8896 278.214ZM34.5188 256.17C34.5013 256.102 34.4999 256.031 34.515 255.962C34.5298 255.894 34.5606 255.83 34.6045 255.775C34.6474 255.717 34.7033 255.67 34.7678 255.639C34.8319 255.606 34.9029 255.59 34.975 255.59H58.9575C59.0656 255.589 59.1705 255.626 59.2549 255.693C59.3393 255.76 59.3979 255.855 59.4206 255.96L63.1113 273.169C50.7838 261.267 49.3913 274.921 49.3913 274.921C42.4387 271.299 40.4252 275.264 39.8456 277.875L34.5188 256.17Z" fill="white"/>
<path opacity="0.21" d="M41.4471 264.367C42.7813 263.952 43.4193 262.179 42.8671 260.409C42.3149 258.639 40.7885 257.535 39.4371 257.95C38.0857 258.365 37.4649 260.138 38.0137 261.911C38.5625 263.685 40.13 264.796 41.4471 264.367Z" fill="white"/>
<path opacity="0.21" d="M47.3332 263.966H55.1982C56.1791 263.966 57.1567 263.966 58.1377 263.966H58.2749C58.55 263.974 58.8237 263.922 59.0775 263.815C59.2538 263.729 59.4037 263.597 59.5117 263.434C59.6201 263.27 59.6825 263.081 59.6932 262.885C59.7038 262.689 59.6616 262.494 59.5714 262.32C59.4812 262.146 59.3464 261.999 59.1804 261.894C58.9972 261.807 58.8295 261.691 58.683 261.551C58.5904 261.398 58.5256 261.23 58.491 261.054C58.3092 260.559 57.9597 260.144 57.5031 259.881C57.169 259.656 56.7931 259.5 56.3976 259.424C56.0022 259.348 55.5954 259.353 55.2016 259.438C54.8202 259.537 54.472 259.736 54.1932 260.015C53.9462 260.255 53.9016 260.574 53.713 260.845C53.5895 261.02 53.5106 260.965 53.3425 260.865C53.1745 260.766 53.0819 260.701 52.9447 260.629C52.674 260.485 52.3931 260.361 52.1043 260.258C51.5161 260.04 50.8887 259.946 50.2624 259.984C49.1614 260.069 48.0638 260.728 47.6762 261.76C47.3301 261.766 46.9974 261.895 46.7377 262.124C46.4781 262.352 46.3086 262.666 46.2596 263.009C46.2373 263.141 46.2462 263.276 46.2846 263.404C46.3234 263.532 46.3909 263.649 46.4825 263.746C46.7302 263.92 47.0324 263.998 47.3332 263.966Z" fill="white"/>
<path opacity="0.21" d="M103.744 263.475L103.113 260.882C102.689 259.136 101.69 257.583 100.277 256.473C98.8649 255.362 97.1197 254.759 95.3231 254.76H86.6418C85.6539 254.759 84.6791 254.986 83.7935 255.424C82.9075 255.86 82.1344 256.496 81.5338 257.28C80.9332 258.064 80.5216 258.977 80.3309 259.946C80.1399 260.915 80.1752 261.915 80.4335 262.868L81.1503 265.509C81.6089 267.207 82.6139 268.706 84.0103 269.774C85.4066 270.842 87.1165 271.421 88.8747 271.419H97.4908C98.4643 271.42 99.425 271.199 100.301 270.774C101.176 270.349 101.944 269.731 102.546 268.966C103.148 268.201 103.569 267.309 103.776 266.358C103.984 265.407 103.973 264.422 103.744 263.475ZM94.2083 264.11L91.238 265.942C91.1241 266.014 90.9951 266.059 90.861 266.073C90.7265 266.087 90.5911 266.07 90.4648 266.023C90.3383 265.976 90.2247 265.9 90.1328 265.801C90.0405 265.703 89.9726 265.584 89.9346 265.455L88.837 261.808C88.791 261.647 88.7917 261.476 88.839 261.315C88.8864 261.154 88.9783 261.01 89.1042 260.898C89.2304 260.788 89.3851 260.715 89.5507 260.688C89.7164 260.662 89.8865 260.683 90.0409 260.749L94.1157 262.56C94.2601 262.626 94.3839 262.731 94.4738 262.863C94.5633 262.995 94.6158 263.148 94.6254 263.307C94.635 263.466 94.6011 263.625 94.5277 263.766C94.4543 263.908 94.3438 264.026 94.2083 264.11Z" fill="white"/>
<path opacity="0.21" d="M101.794 286.799H86.6305C85.9369 286.798 85.2585 286.595 84.6774 286.216C84.0967 285.837 83.6385 285.297 83.3582 284.663C83.2512 284.426 83.2059 284.166 83.2265 283.907C83.2468 283.648 83.3325 283.398 83.4749 283.18C83.6175 282.963 83.8127 282.786 84.0425 282.664C84.272 282.542 84.5285 282.48 84.7885 282.485H100.91C100.155 283.764 100.532 285.541 101.794 286.799Z" fill="white"/>
<path opacity="0.21" d="M111.598 285.242C111.598 285.655 111.435 286.05 111.143 286.342C110.852 286.634 110.457 286.799 110.044 286.799H101.795C100.533 285.541 100.149 283.764 100.907 282.485H108.189C108.882 282.484 109.56 282.685 110.141 283.063C110.722 283.441 111.181 283.981 111.461 284.615C111.549 284.812 111.595 285.026 111.598 285.242Z" fill="#E85A34"/>
<path opacity="0.21" d="M107.804 286.799C107.764 286.883 107.715 286.963 107.657 287.036C106.573 288.514 104.227 288.652 102.406 287.324C102.189 287.165 101.985 286.99 101.795 286.799C100.533 285.541 100.149 283.764 100.907 282.485C100.95 282.401 101 282.322 101.058 282.248C102.131 280.759 104.488 280.632 106.299 281.953C106.518 282.114 106.726 282.292 106.92 282.485C108.172 283.747 108.555 285.51 107.804 286.799Z" fill="white"/>
<path opacity="0.21" d="M115.412 294.764C115.408 295.177 115.241 295.573 114.948 295.864C114.654 296.154 114.258 296.318 113.844 296.318H53.7472C54.5155 295.028 54.1314 293.265 52.8691 292.003H112.002C112.697 292.003 113.376 292.205 113.957 292.585C114.538 292.965 114.996 293.507 115.275 294.143C115.363 294.339 115.409 294.55 115.412 294.764Z" fill="#E85A34"/>
<path opacity="0.21" d="M53.7475 296.318H46.2563C45.5638 296.317 44.8861 296.116 44.3054 295.739C43.7247 295.361 43.2657 294.824 42.9841 294.191C42.8977 293.992 42.8514 293.777 42.8469 293.56C42.8469 293.147 43.0109 292.751 43.3031 292.459C43.595 292.167 43.9912 292.003 44.4041 292.003H52.8694C54.1316 293.265 54.5158 295.028 53.7475 296.318Z" fill="white"/>
<path opacity="0.21" d="M53.7471 296.318C53.7117 296.403 53.6644 296.483 53.6064 296.555C52.5328 298.043 50.1764 298.174 48.3654 296.853C48.1455 296.69 47.938 296.511 47.7446 296.318C46.4926 295.059 46.1084 293.293 46.8596 292.003C46.8997 291.919 46.9495 291.839 47.0071 291.766C48.091 290.288 50.4371 290.15 52.2584 291.481C52.4742 291.64 52.6783 291.815 52.869 292.003C54.1312 293.265 54.5154 295.028 53.7471 296.318Z" fill="white"/>
<path opacity="0.21" d="M59.0476 305.767H49.519C48.8265 305.766 48.1494 305.565 47.5687 305.187C46.988 304.81 46.5291 304.273 46.2468 303.641C46.1607 303.445 46.1141 303.234 46.1096 303.02C46.1113 302.605 46.277 302.207 46.5706 301.913C46.8642 301.62 47.2618 301.454 47.6771 301.452H58.1626C57.4115 302.742 57.7956 304.509 59.0476 305.767Z" fill="#E85A34"/>
<path opacity="0.21" d="M118.678 304.22C118.678 304.424 118.637 304.626 118.558 304.814C118.48 305.002 118.365 305.173 118.22 305.317C118.076 305.461 117.904 305.574 117.715 305.652C117.527 305.729 117.325 305.768 117.121 305.767H59.0475C57.7956 304.509 57.4114 302.742 58.1626 301.452H115.265C115.96 301.452 116.639 301.655 117.22 302.035C117.801 302.415 118.259 302.956 118.537 303.593C118.626 303.79 118.674 304.004 118.678 304.22Z" fill="white"/>
<path opacity="0.21" d="M65.0603 305.767C65.0174 305.851 64.967 305.93 64.9094 306.004C63.8358 307.493 61.4794 307.623 59.6684 306.302C59.4485 306.139 59.241 305.961 59.0475 305.767C57.7956 304.508 57.4114 302.742 58.1626 301.452C58.2031 301.368 58.2525 301.289 58.3101 301.216C59.394 299.737 61.7401 299.61 63.5614 300.931C63.7771 301.09 63.9812 301.264 64.1719 301.452C65.4342 302.715 65.8183 304.488 65.0603 305.767Z" fill="white"/>
</g>
</svg>
