<svg width="561" height="562" viewBox="0 0 561 562" fill="none" xmlns="http://www.w3.org/2000/svg">
<path d="M49.367 311.924C48.9743 306.931 48.6713 301.933 48.4301 296.946" stroke="#202020" stroke-width="2.9863" stroke-miterlimit="10"/>
<path d="M333.313 491.517H190.808" stroke="#CCDDE2" stroke-width="2.9863" stroke-miterlimit="10"/>
<path d="M374.917 134.525C374.917 134.525 416.913 114.693 452.542 153.386C464.183 166.031 472.127 182.81 472.688 200.123C472.943 208.57 471.581 216.988 468.677 224.924C465.72 233.025 460.413 238.388 456.335 245.603C450.08 256.727 463.157 258.697 470.175 264.088C474.839 267.701 479.263 271.614 483.42 275.801C492.787 285.157 501.03 295.574 507.98 306.842C521.743 329.285 530.03 354.653 532.171 380.894C534.286 406.767 532.664 434.862 519.397 457.846C513.013 468.914 503.397 479.77 491.571 484.931C475.863 491.781 458.22 491.523 441.435 491.523H405.716" stroke="#CCDDE2" stroke-width="2.9863" stroke-miterlimit="10"/>
<path d="M199.858 393.061C198.449 403.081 196.351 414.576 194.034 426.082L191.302 426.862C182.559 429.318 173.273 429.046 164.688 426.082L168.268 413.919L146.478 350.526C146.478 350.526 163.134 345.141 176.812 341.141L178.382 341.073C185.855 342.65 201.254 348.568 201.737 370.734C201.77 371.799 201.737 372.921 201.737 374.144C203.908 381.297 203.044 387.603 199.858 393.061Z" fill="#87B7E4"/>
<path d="M148.571 151.753C148.356 151.206 147.935 150.766 147.399 150.526C146.864 150.285 146.255 150.265 145.704 150.468C145.395 150.561 145.11 150.72 144.868 150.934C144.004 151.635 143.808 152.864 143.78 154.031C143.701 156.695 143.55 159.366 143.353 162.019C143.353 162.199 143.325 162.401 143.325 162.58C143.202 164.718 143.292 167.31 142.383 169.172C142.325 169.314 142.225 169.435 142.097 169.52C141.794 169.66 141.474 169.357 141.278 169.082C140.717 168.263 140.156 167.461 139.595 166.625C139.152 165.958 138.652 165.234 137.878 165.021C136.728 164.701 135.634 165.716 135 166.749C132.953 170.115 132.756 175.629 135.926 178.451C139.095 181.273 131.999 186.821 126.916 189.155C126.065 189.633 125.173 190.035 124.251 190.355C124.207 190.355 126.086 190.776 126.041 190.793C122.086 192.17 117.966 193.017 113.789 193.312C108.83 193.643 103.994 193.02 100.476 190.866C100.628 190.305 101.828 186.378 101.901 185.817C102.159 183.859 102.344 181.918 102.462 179.949C102.675 176.252 102.659 172.549 102.518 168.864C102.008 155.602 104.37 144.46 109.845 142.76C110.277 142.631 110.691 142.448 111.079 142.216C113.548 140.853 114.866 137.975 113.733 135.26C113.654 135.075 113.564 134.895 113.486 134.699C113.397 134.505 113.296 134.318 113.183 134.138C123.876 130.817 131.135 133.122 138.473 137.139C139.869 138.255 141.181 139.472 142.4 140.78C145.272 143.898 147.384 147.638 148.571 151.708V151.753Z" fill="#87B7E4"/>
<path d="M405.602 279.263H369.137V192.106C369.137 192.106 362.405 267.835 343.96 310.74H231.025C244.337 302.28 255.013 289.501 262.121 275.745C264.926 270.303 269.414 262.225 276.875 264.346C278.648 264.845 281.257 265.165 282.575 263.543C283.03 262.921 283.288 262.176 283.316 261.406C283.955 253.462 275.72 246.775 268.932 244.666C262.144 242.556 254.211 243.544 248.809 248.475C244.915 252.037 242.475 256.767 239.625 261.148C237.914 263.744 235.886 266.117 233.589 268.211C236.517 250.427 239.126 233.429 239.502 227.174C246.643 221.536 251.888 212.341 253.751 204.206C255.799 195.32 257.605 186.63 260.786 178.311L286.822 178.4C287.802 178.4 288.743 178.011 289.436 177.318C290.129 176.624 290.519 175.684 290.519 174.703V131.462C290.52 130.49 290.137 129.558 289.452 128.868C288.768 128.178 287.838 127.788 286.867 127.781L269.139 127.63C275.582 126.284 282.114 125.411 288.684 125.021C288.819 125.021 288.942 125.021 289.06 125.021C293.386 124.735 300.965 124.612 305.329 124.567C300.129 127.372 296.914 133.33 297.475 138.592C297.574 139.713 297.86 140.809 298.322 141.834C302.766 151.596 314.468 154.479 324.128 151.641C334.877 148.505 342.776 138.62 342.305 127.248C349.037 128.236 355.701 129.489 362.299 131.007C372.324 133.313 382.102 136.421 390.029 143.198C396.941 149.083 402.797 156.662 405.507 165.228C417.142 201.856 413.563 242.73 405.602 279.263Z" fill="#2E2E2E"/>
<path d="M239.795 227.174C238.975 240.559 236.866 253.934 234.577 267.274" stroke="#202020" stroke-width="2.9863" stroke-miterlimit="10"/>
<path d="M261.079 178.311C257.892 186.63 256.091 195.32 254.044 204.206C252.164 212.313 246.93 221.536 239.794 227.174C233.803 231.903 226.465 234.13 218.611 231.146C208.075 227.129 204.378 215.516 203.088 205.278C201.411 192.529 201.309 179.623 202.785 166.849C204.272 170.154 210.347 180.207 229.191 177.564C229.697 177.943 230.306 178.16 230.936 178.187L261.079 178.311Z" fill="#2E2E2E"/>
<path d="M250.498 149.548C254.885 148.426 257.556 152.645 256.905 155.854C255.845 161.088 248.316 163.147 243.834 163.242C240.243 163.315 231.492 162.367 227.924 161.952" stroke="#202020" stroke-width="2.9863" stroke-miterlimit="10"/>
<path d="M226.448 152.14C231.875 153.709 237.622 153.803 243.098 152.415C247.704 151.231 253.146 149.049 255.558 144.667C256.966 142.121 255.844 138.059 252.904 137.161C249.51 136.135 246.369 139.512 243.295 140.365C241.311 140.905 239.287 141.28 237.241 141.487C236.68 141.548 236.153 141.593 235.609 141.638C232.746 141.868 229.868 141.847 227.009 141.576C226.705 141.576 226.408 141.48 226.162 141.303C225.915 141.124 225.731 140.873 225.635 140.584C225.539 140.296 225.537 139.984 225.629 139.694C225.72 139.404 225.901 139.15 226.145 138.968L226.661 138.592" stroke="#202020" stroke-width="2.9863" stroke-miterlimit="10"/>
<path d="M261.079 178.311C257.892 186.63 256.091 195.32 254.044 204.207C250.588 219.124 235.851 237.71 218.611 231.135C208.075 227.118 204.378 215.505 203.088 205.267C201.069 189.413 201.237 173.127 204.21 157.408C206.679 144.46 211.06 130.861 223.66 124.494L229.573 121.538C230.983 120.825 232.616 120.693 234.123 121.169C235.629 121.645 236.89 122.692 237.635 124.085C238.088 124.951 238.329 125.912 238.336 126.89C238.341 127.033 238.33 127.176 238.302 127.316" stroke="#202020" stroke-width="2.9863" stroke-miterlimit="10"/>
<path d="M381.178 300.003C384.224 299.908 387.273 299.985 390.311 300.233C392.79 300.435 395.36 300.552 397.722 301.478C399.668 302.252 401.699 304.098 401.598 306.353C401.413 310.774 395.623 310.74 392.448 310.74" stroke="#202020" stroke-width="2.9863" stroke-miterlimit="10"/>
<path opacity="0.54" d="M326.692 295.79L353.093 228.15C353.42 226.839 353.443 225.471 353.161 224.149C352.88 222.828 352.3 221.588 351.467 220.525C350.634 219.461 349.569 218.602 348.354 218.012C347.138 217.422 345.804 217.117 344.453 217.121H239.614C237.264 217.126 234.984 217.921 233.141 219.378C231.297 220.835 229.997 222.869 229.448 225.154L200.512 292.777C200.198 294.083 200.184 295.442 200.472 296.754C200.759 298.065 201.341 299.295 202.171 300.349C203.002 301.404 204.062 302.256 205.27 302.843C206.478 303.428 207.803 303.733 209.146 303.733H316.521C318.859 303.732 321.13 302.95 322.973 301.51C324.816 300.071 326.124 298.058 326.692 295.79Z" fill="white"/>
<path d="M326.692 295.79L353.093 228.15C353.42 226.839 353.443 225.471 353.161 224.149C352.88 222.828 352.3 221.588 351.467 220.525C350.634 219.461 349.569 218.602 348.354 218.012C347.138 217.422 345.804 217.117 344.453 217.121H239.614C237.264 217.126 234.984 217.921 233.141 219.378C231.297 220.835 229.997 222.869 229.448 225.154L200.512 292.777C200.198 294.083 200.184 295.442 200.472 296.754C200.759 298.065 201.341 299.295 202.171 300.349C203.002 301.404 204.062 302.256 205.27 302.843C206.478 303.428 207.803 303.733 209.146 303.733H316.521C318.859 303.732 321.13 302.95 322.973 301.51C324.816 300.071 326.124 298.058 326.692 295.79Z" fill="#87B7E4"/>
<path d="M326.692 295.79L353.093 228.15C353.42 226.839 353.443 225.471 353.161 224.149C352.88 222.828 352.3 221.588 351.467 220.525C350.634 219.461 349.569 218.602 348.354 218.012C347.138 217.422 345.804 217.117 344.453 217.121H239.614C237.264 217.126 234.984 217.921 233.141 219.378C231.297 220.835 229.997 222.869 229.448 225.154L200.512 292.777C200.198 294.083 200.184 295.442 200.472 296.754C200.759 298.065 201.341 299.295 202.171 300.349C203.002 301.404 204.062 302.256 205.27 302.843C206.478 303.428 207.803 303.733 209.146 303.733H316.521C318.859 303.732 321.13 302.95 322.973 301.51C324.816 300.071 326.124 298.058 326.692 295.79Z" stroke="#202020" stroke-width="2.9863" stroke-linecap="square" stroke-linejoin="round"/>
<path d="M322.827 293.052L347.186 230.652C347.488 229.444 347.511 228.183 347.252 226.966C346.994 225.748 346.461 224.605 345.695 223.624C344.929 222.643 343.949 221.849 342.829 221.304C341.711 220.758 340.482 220.475 339.237 220.475H242.492C240.321 220.475 238.212 221.205 236.506 222.55C234.8 223.895 233.597 225.774 233.09 227.886L206.448 290.275C206.161 291.479 206.15 292.732 206.417 293.94C206.683 295.149 207.219 296.282 207.986 297.253C208.752 298.225 209.729 299.01 210.842 299.55C211.955 300.091 213.177 300.372 214.414 300.373H313.448C315.604 300.375 317.699 299.655 319.399 298.328C321.098 297.001 322.306 295.144 322.827 293.052Z" fill="#87B7E4"/>
<path d="M249.471 231.976C250.755 230.052 252.837 229.171 254.16 230.063C255.484 230.955 255.484 233.199 254.205 235.112C254.003 235.407 253.778 235.684 253.532 235.942L263.035 256.009C264.55 255 266.216 254.747 267.417 255.544C267.802 255.825 268.12 256.186 268.351 256.602C268.582 257.019 268.718 257.481 268.752 257.956L275.248 255.768L280.926 253.855L282.777 253.249C283.012 252.552 283.336 251.888 283.742 251.275C285.543 248.565 288.488 247.348 290.323 248.582C292.157 249.816 292.179 252.929 290.429 255.617L301.256 270.399C303.618 268.464 306.395 267.863 308.319 269.142C310.939 270.887 310.979 275.437 308.409 279.296C308.303 279.454 308.185 279.577 308.078 279.723L315.281 289.574L315.349 289.669C315.717 290.225 315.85 290.905 315.717 291.558C315.584 292.211 315.198 292.785 314.642 293.153C314.086 293.522 313.407 293.654 312.754 293.521C312.101 293.389 311.527 293.002 311.158 292.446L304.763 282.792C302.737 283.964 300.583 284.188 299.007 283.139C296.505 281.456 296.381 277.26 298.614 273.518L288.252 257.877C286.721 258.915 285.032 259.179 283.821 258.377C283.147 257.899 282.688 257.176 282.541 256.363L281.767 256.576L275.995 258.152L268.601 260.15C268.37 261.035 267.991 261.876 267.479 262.635C265.678 265.339 262.733 266.562 260.898 265.328C259.064 264.093 259.036 260.924 260.836 258.214C261.101 257.816 261.397 257.441 261.723 257.092L252.674 236.649C251.585 237.395 250.379 237.586 249.515 237.008C248.214 236.144 248.191 233.878 249.471 231.976Z" fill="#D7E8F0"/>
<path d="M318.31 233.053H332.335C332.976 233.052 333.604 232.865 334.141 232.515C334.677 232.164 335.1 231.665 335.359 231.078C335.436 230.901 335.478 230.71 335.482 230.517C335.481 230.135 335.328 229.768 335.057 229.498C334.786 229.228 334.418 229.076 334.035 229.076H319.129C319.831 230.248 319.477 231.892 318.31 233.053Z" fill="#D7E8F0"/>
<path d="M309.245 231.617C309.246 231.998 309.399 232.363 309.669 232.632C309.939 232.901 310.305 233.053 310.686 233.053H318.31C319.477 231.892 319.831 230.248 319.129 229.064H312.397C311.757 229.064 311.13 229.25 310.593 229.599C310.056 229.949 309.633 230.447 309.374 231.033C309.291 231.217 309.247 231.415 309.245 231.617Z" fill="#87B7E4"/>
<path d="M312.751 233.053C312.792 233.13 312.839 233.203 312.892 233.272C313.89 234.641 316.061 234.77 317.744 233.541C317.944 233.394 318.131 233.231 318.305 233.053C319.472 231.892 319.825 230.248 319.124 229.065C319.088 228.987 319.042 228.914 318.99 228.846C317.997 227.471 315.826 227.354 314.143 228.571C313.943 228.721 313.756 228.886 313.582 229.065C312.415 230.232 312.061 231.864 312.751 233.053Z" fill="white"/>
<path d="M305.746 240.419C305.748 240.801 305.902 241.167 306.173 241.435C306.444 241.705 306.811 241.855 307.193 241.855H321.908C321.196 240.666 321.549 239.05 322.716 237.867H308.876C308.234 237.867 307.606 238.054 307.068 238.405C306.53 238.755 306.106 239.254 305.847 239.841C305.776 240.026 305.742 240.222 305.746 240.419Z" fill="#87B7E4"/>
<path d="M321.886 241.855H328.809C329.448 241.855 330.074 241.67 330.611 241.321C331.148 240.973 331.572 240.476 331.833 239.892C331.912 239.715 331.955 239.524 331.962 239.331C331.962 239.141 331.925 238.953 331.853 238.778C331.781 238.603 331.675 238.444 331.541 238.31C331.407 238.176 331.247 238.07 331.072 237.997C330.897 237.925 330.71 237.889 330.52 237.889H322.694C321.527 239.034 321.174 240.666 321.886 241.855Z" fill="#D7E8F0"/>
<path d="M321.884 241.855C321.917 241.933 321.958 242.006 322.008 242.074C323.001 243.449 325.172 243.572 326.855 242.349C327.053 242.199 327.241 242.033 327.416 241.855C328.572 240.689 328.925 239.05 328.235 237.867C328.194 237.791 328.149 237.718 328.1 237.648C327.096 236.279 324.925 236.156 323.242 237.384C323.042 237.53 322.855 237.691 322.681 237.867C321.525 239.034 321.172 240.666 321.884 241.855Z" fill="white"/>
<path d="M316.965 250.596H325.773C326.414 250.595 327.041 250.408 327.579 250.059C328.116 249.71 328.541 249.212 328.802 248.627C328.879 248.449 328.921 248.259 328.926 248.066C328.926 247.681 328.773 247.312 328.502 247.04C328.23 246.768 327.862 246.614 327.478 246.613H317.801C318.496 247.796 318.137 249.429 316.965 250.596Z" fill="#87B7E4"/>
<path d="M302.703 249.165C302.704 249.354 302.742 249.54 302.815 249.714C302.888 249.888 302.994 250.046 303.128 250.179C303.262 250.312 303.421 250.417 303.595 250.488C303.77 250.56 303.957 250.597 304.145 250.596H316.964C318.12 249.429 318.479 247.791 317.783 246.601H305.856C305.214 246.601 304.585 246.788 304.049 247.14C303.511 247.492 303.088 247.993 302.832 248.582C302.75 248.765 302.706 248.964 302.703 249.165Z" fill="#D7E8F0"/>
<path d="M311.422 250.595C311.462 250.672 311.509 250.745 311.562 250.814C312.555 252.189 314.721 252.306 316.409 251.083C316.608 250.935 316.796 250.773 316.97 250.595C318.126 249.428 318.485 247.79 317.789 246.601C317.752 246.524 317.707 246.45 317.655 246.382C316.65 245.019 314.485 244.901 312.796 246.119C312.598 246.266 312.41 246.427 312.235 246.601C311.08 247.768 310.721 249.412 311.422 250.595Z" fill="white"/>
<path d="M260.03 291.818H268.843C269.484 291.817 270.11 291.63 270.647 291.281C271.183 290.931 271.607 290.434 271.867 289.849C271.944 289.671 271.986 289.481 271.991 289.288C271.991 288.904 271.838 288.536 271.567 288.264C271.295 287.993 270.927 287.84 270.543 287.84H260.866C261.545 289.018 261.186 290.651 260.03 291.818Z" fill="#87B7E4"/>
<path d="M225.057 290.387C225.058 290.576 225.096 290.762 225.169 290.937C225.241 291.11 225.348 291.268 225.482 291.401C225.616 291.534 225.774 291.639 225.949 291.711C226.124 291.782 226.311 291.818 226.499 291.818H260.03C261.186 290.651 261.545 289.013 260.849 287.829H228.21C227.568 287.829 226.941 288.015 226.404 288.365C225.867 288.717 225.444 289.216 225.186 289.804C225.106 289.988 225.062 290.186 225.057 290.387Z" fill="#D7E8F0"/>
<path d="M254.47 291.818C254.511 291.894 254.558 291.968 254.61 292.037C255.603 293.411 257.769 293.529 259.457 292.312C259.655 292.16 259.843 291.995 260.018 291.818C261.174 290.651 261.533 289.013 260.837 287.829C260.8 287.751 260.756 287.678 260.703 287.611C259.699 286.242 257.533 286.124 255.845 287.341C255.645 287.489 255.457 287.652 255.284 287.829C254.134 288.991 253.769 290.634 254.47 291.818Z" fill="white"/>
<path d="M38.2495 313.422C38.2495 313.422 19.7365 397.05 67.3599 414.52C114.983 431.989 243.626 415.58 190.163 355.239C136.7 294.898 38.2495 313.422 38.2495 313.422Z" fill="#2E2E2E"/>
<path d="M269.324 127.63C275.797 126.28 282.359 125.404 288.959 125.01C289.099 125.01 289.217 125.01 289.34 125.01C293.677 124.724 301.273 124.601 305.609 124.556" stroke="#202020" stroke-width="2.9863" stroke-miterlimit="10"/>
<path d="M237.24 141.47C237.196 141.497 237.168 141.531 237.123 141.558" stroke="#202020" stroke-width="2.9863" stroke-miterlimit="10"/>
<path d="M311.048 106.312C307.738 108.051 303.934 106.873 302.475 103.911" stroke="#202020" stroke-width="2.9863" stroke-miterlimit="10"/>
<path d="M291.833 64.0408C291.684 66.6147 292.344 69.1706 293.721 71.3495C295.099 73.529 297.124 75.2221 299.513 76.1921C300.018 75.2647 300.742 74.4754 301.622 73.892C305.342 71.4853 304.68 77.9143 314.778 76.2201C328.775 73.8583 332.343 78.7334 332.343 78.7334C332.651 79.1597 331.782 81.9423 331.658 82.4528C331.097 85.4429 330.536 88.4162 330.026 91.4288C329.696 93.2537 329.364 95.0675 329.027 96.8705C329.282 96.6237 329.552 96.3931 329.835 96.1805C332.135 92.5901 335.507 88.5621 339.181 91.8496C339.919 92.534 340.484 93.3839 340.831 94.3292C342.514 98.9013 339.293 101.841 335.529 103.603C334.536 104.203 333.481 104.694 332.382 105.067C332.567 106.222 333.336 110.828 333.336 110.839C333.414 111.311 342.76 105.549 343.54 104.848C344.949 102.985 346.035 100.899 346.755 98.6769C349.661 89.5102 349.167 77.6619 343.316 70.122C341.863 68.2539 342.833 67.1768 343.254 65.3591C343.274 65.261 343.265 65.1594 343.227 65.0674C343.188 64.9749 343.123 64.8963 343.04 64.8413C342.957 64.7864 342.859 64.7578 342.759 64.7589C342.659 64.7606 342.562 64.7914 342.48 64.8486C339.327 66.829 333.622 64.8038 333.622 64.8038C315.109 53.6845 305.622 60.5626 301.084 60.9104C299.243 61.0366 297.416 60.5166 295.917 59.4406C295.653 59.9612 295.253 60.3999 294.759 60.7101C294.265 61.0204 293.695 61.1904 293.112 61.2021L292.932 62.1671C292.795 62.9003 292.406 63.5628 291.833 64.0408Z" fill="#87B7E4"/>
<path d="M299.524 76.2144C297.135 75.2449 295.109 73.5518 293.732 71.3724C292.354 69.1929 291.694 66.637 291.844 64.0631C291.898 63.0746 292.041 62.0929 292.27 61.1291L292.433 61.1627C292.653 61.2126 292.88 61.2295 293.106 61.2132C293.689 61.202 294.258 61.032 294.753 60.7218C295.247 60.4115 295.648 59.9723 295.911 59.4517C296.065 59.1622 296.174 58.8497 296.231 58.526L297.095 53.8306C297.095 53.8306 299.9 57.6284 304.388 57.275C308.876 56.9216 318.362 50.0438 336.926 61.1683C336.926 61.1683 341.38 62.8121 344.533 60.8317C344.615 60.7751 344.712 60.7437 344.812 60.7425C344.912 60.7414 345.009 60.77 345.093 60.825C345.176 60.88 345.241 60.9585 345.279 61.0505C345.317 61.1431 345.327 61.2446 345.307 61.3422C344.886 63.1543 345.167 64.6185 346.62 66.4866C352.471 74.0265 352.965 85.8748 350.059 95.0415C348.787 98.8406 346.527 102.232 343.512 104.87C342.732 105.571 333.386 111.333 333.307 110.862C333.307 110.862 332.539 106.245 332.354 105.089L332.309 104.825L332.573 104.747C333.572 104.438 334.55 104.063 335.501 103.625C339.265 101.863 342.502 98.9236 340.802 94.3515C340.456 93.4067 339.891 92.5568 339.153 91.8719C335.479 88.5844 332.107 92.6124 329.807 96.2028C329.362 96.8844 328.997 97.6148 328.718 98.3795C328.808 97.8858 328.898 97.4033 328.993 96.9096C329.33 95.1032 329.663 93.2895 329.992 91.4679C330.553 88.4722 331.075 85.4989 331.624 82.4919C331.725 81.9814 332.617 79.1989 332.309 78.7725C332.309 78.7725 328.741 73.8974 314.744 76.2592C304.646 77.9422 305.308 71.5244 301.589 73.9311C300.708 74.5145 299.984 75.3044 299.479 76.2312C299.323 76.5336 299.184 76.8443 299.064 77.1624C299.044 77.2023 299.027 77.2438 299.014 77.2859C298.761 77.9815 298.531 78.6828 298.307 79.3672C296.209 86.0375 294.823 93.2407 295.563 100.248C296.467 108.741 302.654 118.727 312.5 117.88C315.598 117.517 318.619 116.669 321.454 115.367" stroke="#202020" stroke-width="2.9863" stroke-miterlimit="10"/>
<path d="M300.598 94.317C301.561 94.2895 302.315 93.3235 302.282 92.1588C302.249 90.9942 301.442 90.0725 300.479 90.1C299.516 90.1269 298.761 91.0929 298.794 92.2576C298.827 93.4222 299.635 94.3439 300.598 94.317Z" fill="#202020"/>
<path d="M313.781 97.8585C314.745 97.831 315.499 96.865 315.466 95.7009C315.433 94.5363 314.626 93.614 313.662 93.6415C312.699 93.669 311.945 94.635 311.978 95.7991C312.011 96.9637 312.818 97.886 313.781 97.8585Z" fill="#202020"/>
<path d="M308.089 98.6375C308.089 98.6375 302.989 99.7595 303.505 97.1453C303.663 96.3262 304.942 88.2815 304.942 88.2815C304.942 88.2815 302.563 83.4905 296.342 84.6069" stroke="#202020" stroke-width="2.9863" stroke-miterlimit="10"/>
<path d="M310.38 87.5632C310.38 87.5632 318.464 86.1888 321.561 92.6459" stroke="#202020" stroke-width="2.9863" stroke-miterlimit="10"/>
<path d="M305.699 124.488C299.332 127.854 295.932 135.955 298.597 141.818C303.04 151.585 314.737 154.457 324.403 151.635C335.151 148.493 343.05 138.586 342.579 127.226" stroke="#202020" stroke-width="2.9863" stroke-miterlimit="10"/>
<path d="M344.251 310.735C362.713 267.83 369.417 192.1 369.417 192.1V297.759C369.417 299.463 369.752 301.151 370.404 302.725C371.056 304.3 372.011 305.731 373.217 306.936C374.422 308.141 375.852 309.097 377.427 309.749C379.002 310.401 380.689 310.735 382.393 310.735H423.346C424.882 310.759 426.372 310.215 427.53 309.207C428.689 308.2 429.435 306.8 429.624 305.276C429.706 304.437 429.612 303.589 429.347 302.789C429.081 301.988 428.651 301.252 428.085 300.628C427.517 300.004 426.826 299.505 426.054 299.165C425.282 298.824 424.448 298.649 423.604 298.651H406.831C406.162 298.649 405.502 298.494 404.902 298.198C404.302 297.903 403.778 297.474 403.369 296.945C402.959 296.415 402.676 295.8 402.542 295.145C402.406 294.489 402.423 293.812 402.589 293.164C412.687 253.333 418.931 206.58 405.787 165.206C403.072 156.667 397.221 149.06 390.309 143.181C382.377 136.404 372.598 133.296 362.579 130.996C355.97 129.481 349.304 128.228 342.579 127.237C342.56 127.244 342.538 127.244 342.517 127.237C342.473 127.237 342.428 127.237 342.4 127.237H342.355H342.293H342.203" stroke="#202020" stroke-width="2.9863" stroke-miterlimit="10"/>
<path d="M338.35 108.175L337.609 121.577C337.539 122.887 337.95 124.177 338.765 125.204C339.581 126.231 340.744 126.925 342.036 127.153H342.204C342.233 127.145 342.264 127.145 342.294 127.153H342.322H342.4" stroke="#202020" stroke-width="2.9863" stroke-miterlimit="10"/>
<path d="M342.518 127.215H342.4H342.355H342.322H342.294H342.204H342.036C340.744 126.986 339.581 126.293 338.765 125.266C337.95 124.238 337.539 122.948 337.609 121.638L338.35 108.236" stroke="#202020" stroke-width="2.9863" stroke-miterlimit="10"/>
<path d="M306.759 117.044C306.395 116.898 306.759 132.011 297.744 138.575" stroke="#202020" stroke-width="2.9863" stroke-miterlimit="10"/>
<path d="M186.061 310.74H157.181" stroke="#202020" stroke-width="2.9863" stroke-miterlimit="10"/>
<path d="M468.204 310.74H231.025" stroke="#202020" stroke-width="2.9863" stroke-miterlimit="10"/>
<path d="M102.522 168.847C102.8 174.505 102.598 180.177 101.916 185.8C101.041 192.409 94.9318 200.807 93.6079 207.343C91.7173 216.745 94.5784 226.461 98.5054 235.191C103.251 245.743 110.73 256.357 110 268.441C109.627 273.704 108.06 278.813 105.421 283.381C102.781 287.949 99.1365 291.857 94.7635 294.808C88.7732 298.815 81.9312 301.371 74.7807 302.269C73.7821 302.387 72.7667 302.483 71.7513 302.511C71.1903 302.511 70.6293 302.449 70.0683 302.404C51.0502 300.794 31.5443 286.286 31.5891 266.09C31.5891 253.187 41.3954 243.089 43.0504 230.568C44.0658 222.91 41.8218 214.955 43.8975 207.522C47.2635 195.651 60.2732 189.177 65.973 178.249C70.1693 170.182 70.8537 160.768 74.1748 152.308C78.7975 140.527 86.1802 127.063 96.2782 125.941C99.2083 126.274 102.041 127.197 104.603 128.657C110.864 132.023 112.457 132.236 113.731 135.237C115.032 138.373 113.091 141.722 109.849 142.727C104.373 144.46 102.012 155.585 102.522 168.847Z" fill="#87B7E4"/>
<path d="M108.026 130.48C124.463 125.717 134.909 132.724 142.381 140.802C149.854 148.881 149.506 158.053 149.506 158.053" stroke="#202020" stroke-width="2.9863" stroke-miterlimit="10"/>
<path d="M159.009 288.48C158.761 301.322 157.134 314.099 154.157 326.594" stroke="#202020" stroke-width="2.9863" stroke-miterlimit="10"/>
<path d="M199.856 393.061C193.836 403.418 179.559 410.772 162.089 415.35C131.088 423.473 90.0456 422.839 67.37 414.514C19.7187 397.05 38.2429 313.422 38.2429 313.422C38.2429 313.422 120.659 297.91 175.615 341.472C180.865 345.622 185.739 350.227 190.178 355.233C196.254 362.106 199.985 368.394 201.746 374.139C203.906 381.297 203.042 387.603 199.856 393.061Z" stroke="#202020" stroke-width="2.9863" stroke-miterlimit="10"/>
<path d="M168.266 413.936C168.266 413.936 139.391 494.086 187.901 514.557C236.41 535.028 9.76082 537.755 59.7908 514.557C109.821 491.36 81.0639 418.834 81.0639 418.834" stroke="#202020" stroke-width="2.9863" stroke-miterlimit="10"/>
<path d="M227.002 141.56C226.402 139.725 226.649 133.347 226.845 129.745C226.883 129.065 227.184 128.426 227.685 127.964C228.185 127.503 228.846 127.253 229.527 127.271L287.159 127.776C288.13 127.785 289.059 128.177 289.743 128.867C290.427 129.558 290.811 130.49 290.811 131.462V174.709C290.811 175.194 290.715 175.675 290.528 176.123C290.342 176.572 290.069 176.979 289.725 177.321C289.381 177.664 288.973 177.935 288.523 178.119C288.075 178.303 287.593 178.397 287.108 178.395L230.946 178.187C230.133 178.154 229.364 177.807 228.8 177.219C228.236 176.632 227.922 175.848 227.922 175.034V171.736C231.917 173.598 239.468 174.17 239.468 174.17C242.155 174.098 246.402 173.772 248.73 172.437C250.862 171.214 253.555 169.458 253.919 166.799C254.06 165.771 253.788 164.728 253.162 163.9C252.537 163.071 251.609 162.524 250.581 162.378C249.964 162.255 249.325 162.3 248.73 162.507" stroke="#202020" stroke-width="2.9863" stroke-miterlimit="10"/>
<path d="M283.249 261.406C283.223 262.177 282.962 262.923 282.503 263.543C281.184 265.165 278.576 264.845 276.803 264.346C269.347 262.225 264.871 270.303 262.054 275.745C254.941 289.501 244.271 302.28 230.958 310.74C230.094 311.301 229.213 311.829 228.321 312.345C215.312 319.851 198.454 318.454 185.871 310.662L201.96 271.139L203.553 272.413C213.27 280.082 225.23 275.779 233.511 268.211C235.809 266.117 237.837 263.744 239.547 261.148C242.397 256.766 244.837 252.037 248.736 248.475C254.133 243.544 262.032 242.579 268.854 244.666C275.675 246.753 283.866 253.462 283.249 261.406Z" fill="white"/>
<path d="M283.181 258.606C283.181 258.606 281.352 248.923 264.864 256.48" stroke="#202020" stroke-width="2.9863" stroke-miterlimit="10"/>
<path d="M274.009 246.983C274.009 246.983 263.732 243.695 258.009 251.549" stroke="#202020" stroke-width="2.9863" stroke-miterlimit="10"/>
<path d="M66.5458 302.42C69.2903 302.665 72.0521 302.62 74.7869 302.286C81.9358 301.375 88.7749 298.815 94.7641 294.808C99.1371 291.856 102.782 287.948 105.421 283.38C108.062 278.812 109.627 273.703 110.001 268.441C110.73 256.351 103.269 245.737 98.506 235.185C94.579 226.45 91.7179 216.733 93.6141 207.342C94.9324 200.801 101.031 192.408 101.911 185.794C102.596 180.171 102.803 174.499 102.528 168.841C102.018 155.573 104.374 144.437 109.849 142.743C113.092 141.739 115.039 138.384 113.732 135.254C112.481 132.247 110.87 132.067 104.604 128.662C88.2678 119.776 76.9075 136.342 70.6355 152.314C67.3088 160.779 66.6356 170.182 62.4337 178.249C56.7339 189.183 43.6964 195.64 40.364 207.533C38.2827 214.961 40.5267 222.921 39.5169 230.568C37.8676 243.084 28.0781 253.176 28.0501 266.09C28.0052 286.281 47.5336 300.799 66.5458 302.42Z" stroke="#202020" stroke-width="2.9863" stroke-miterlimit="10"/>
<path d="M199.856 393.062C198.448 403.081 196.35 414.576 194.039 426.082C187.486 458.693 179.15 491.5 179.15 491.5" stroke="#202020" stroke-width="2.9863" stroke-miterlimit="10"/>
<path d="M201.725 374.139C201.753 372.916 201.77 371.794 201.725 370.728C201.226 347.727 184.687 342.229 177.574 340.911C176.513 340.703 175.439 340.566 174.359 340.501" stroke="#202020" stroke-width="2.9863" stroke-miterlimit="10"/>
<path d="M181.618 481.554C182.534 480.993 183.582 480.686 184.656 480.666C185.729 480.645 186.788 480.912 187.725 481.437C188.661 481.962 189.44 482.728 189.982 483.655C190.524 484.581 190.809 485.636 190.807 486.709C190.807 486.788 190.807 486.883 190.807 486.995C190.718 489.766 189.988 492.477 188.675 494.919C187.362 497.36 185.502 499.464 183.239 501.065L175.441 506.614" stroke="#202020" stroke-width="2.9863" stroke-miterlimit="10"/>
<path d="M93.0363 214.759C94.1246 214.316 95.2354 213.923 96.3574 213.558C98.7192 209.194 98.3546 199.64 98.1302 196.167L100.492 190.843C107.011 194.849 115.639 193.345 123.644 190.557C124.769 190.165 125.862 189.688 126.915 189.132C131.998 186.799 139.122 181.278 135.925 178.428C132.727 175.579 132.951 170.092 134.999 166.726C135.622 165.694 136.727 164.678 137.877 164.998C138.651 165.211 139.15 165.935 139.594 166.603C140.155 167.438 140.716 168.241 141.277 169.06C141.473 169.335 141.793 169.621 142.096 169.497C142.224 169.413 142.323 169.292 142.382 169.15C143.369 167.119 143.184 164.207 143.352 161.98C143.549 159.326 143.7 156.656 143.779 153.991C143.824 152.521 144.127 150.945 145.703 150.429C146.021 150.307 146.363 150.258 146.703 150.287C147.043 150.316 147.371 150.422 147.664 150.597C147.956 150.773 148.205 151.012 148.391 151.298C148.578 151.584 148.696 151.908 148.738 152.247C149.885 158.694 150.054 165.278 149.237 171.775C148.463 178.58 147.066 185.8 142.702 191.287C140.215 194.452 136.883 196.848 133.092 198.198C129.423 199.472 129.541 203.898 129.541 207.78V214.226C140.822 216.515 151.42 219.275 160.182 227.129C165.977 232.427 171.43 238.087 176.507 244.077C192.49 262.831 195.946 266.348 203.643 272.413C213.36 280.082 225.326 275.779 233.6 268.211C235.894 266.117 237.918 263.744 239.626 261.148C242.475 256.767 244.916 252.037 248.809 248.475C254.212 243.544 262.11 242.579 268.932 244.666C275.754 246.753 283.956 253.462 283.305 261.406C283.278 262.177 283.019 262.921 282.564 263.543C281.246 265.165 278.637 264.845 276.865 264.346C269.403 262.225 264.932 270.303 262.11 275.745C255.003 289.501 244.327 302.281 231.014 310.74C230.15 311.301 229.275 311.829 228.378 312.345C213.505 320.928 193.567 317.865 180.777 306.931L149.922 280.738" stroke="#202020" stroke-width="2.9863" stroke-miterlimit="10"/>
<path d="M96.3584 213.558C96.3584 213.558 111.096 209.003 129.542 214.243" stroke="#202020" stroke-width="2.9863" stroke-miterlimit="10"/>
<path d="M227.924 171.736C227.924 171.736 228.036 190.81 232.586 198.154" stroke="#202020" stroke-width="2.9863" stroke-miterlimit="10"/>
<path d="M242.875 84.4329C239.374 90.4075 239.537 94.6487 240.446 101.532C240.521 102.118 240.429 102.714 240.18 103.25C239.931 103.786 239.536 104.241 239.04 104.563C238.544 104.884 237.967 105.059 237.376 105.066C236.785 105.074 236.204 104.914 235.7 104.606C215.504 92.9825 196.603 102.177 172.492 96.4832C163.639 94.4019 152.604 90.099 145.036 83.1707C142.526 79.4417 141.186 75.0485 141.188 70.5538C141.188 51.7096 166.932 36.428 198.674 36.428C219.021 36.428 236.895 42.7056 247.116 52.164C247.116 52.164 247.116 52.164 247.144 52.1977C249.708 55.8846 251.108 60.2566 251.161 64.7474C251.161 71.5299 246.134 78.8229 242.875 84.4329Z" fill="#D7E8F0"/>
<path d="M251.071 64.7586V65.2355C250.953 71.8385 247.649 77.9758 243.728 83.2885C241.102 86.8452 237.989 90.789 238.729 95.148C239.055 97.0666 240.126 98.8113 240.412 100.758C240.698 102.705 239.655 105.089 237.708 105.19C236.474 105.252 235.419 104.371 234.443 103.614C228.648 99.1255 221.119 97.4425 213.798 97.1508C206.477 96.8591 199.167 97.8184 191.841 98.0259C181.283 98.3289 170.556 97.0105 160.801 92.9769C152.032 89.3192 144.038 83.3726 138.776 75.4569C133.609 67.6534 136.666 56.3323 142.175 49.5498C147.348 43.1881 154.832 39.1152 162.512 36.2485C183.162 28.5347 206.735 28.7199 227.105 37.1629C233.153 39.6425 238.987 42.9188 243.531 47.6424C247.963 52.2482 251.032 58.3857 251.071 64.7586Z" stroke="#202020" stroke-width="2.9863" stroke-miterlimit="10"/>
<path d="M166.325 72.2647C170.706 72.2647 174.258 68.7136 174.258 64.3322C174.258 59.9513 170.706 56.3997 166.325 56.3997C161.945 56.3997 158.393 59.9513 158.393 64.3322C158.393 68.7136 161.945 72.2647 166.325 72.2647Z" fill="white"/>
<path d="M191.974 72.2647C196.355 72.2647 199.906 68.7136 199.906 64.3322C199.906 59.9513 196.355 56.3997 191.974 56.3997C187.592 56.3997 184.041 59.9513 184.041 64.3322C184.041 68.7136 187.592 72.2647 191.974 72.2647Z" fill="white"/>
<path d="M218.123 72.2647C222.504 72.2647 226.056 68.7136 226.056 64.3322C226.056 59.9513 222.504 56.3997 218.123 56.3997C213.743 56.3997 210.191 59.9513 210.191 64.3322C210.191 68.7136 213.743 72.2647 218.123 72.2647Z" fill="white"/>
<g opacity="0.54">
<path opacity="0.54" d="M370.551 396.91L367.325 443.473C365.85 446.284 364.007 448.886 361.844 451.209C361.608 451.125 361.373 451.035 361.143 450.929C360.711 450.783 360.284 450.609 359.88 450.441C353.345 447.574 348.38 442.233 346.933 436.18C345.625 430.879 346.804 425.151 344.279 420.169C341.199 414.032 332.823 410.183 331.797 403.261C330.832 396.781 336.666 390.84 335.724 384.49C334.602 377.309 325.822 373.051 324.178 366.038C323.152 361.679 324.072 356.675 323.685 352.187C323.258 347.167 322.416 342.19 321.166 337.31C334.164 336.367 347.393 343.531 351.606 353.792C355.045 362.207 352.975 372.007 358.338 379.659C361.266 383.805 366.141 386.907 368.666 391.244C369.445 392.597 370.012 394.061 370.349 395.586C370.349 395.693 370.349 395.799 370.388 395.883C370.388 396.057 370.433 396.181 370.455 396.31C370.511 396.697 370.551 396.91 370.551 396.91Z" fill="#87B7E4"/>
<path opacity="0.54" d="M370.574 396.871C370.574 396.871 370.535 396.68 370.49 396.31C370.529 396.458 370.557 396.607 370.574 396.759C370.583 396.776 370.587 396.795 370.587 396.815C370.587 396.834 370.583 396.853 370.574 396.871Z" fill="#87B7E4"/>
</g>
<path d="M413.519 378.7C411.836 384.747 402.619 388.422 401.508 394.621C400.526 400.119 406.597 405.246 405.592 410.828C404.521 416.814 395.797 420.124 392.594 425.414C389.985 429.712 391.203 434.654 389.856 439.226C388.297 444.421 383.124 449.06 376.303 451.518C375.876 451.669 375.472 451.815 375.04 451.944C374.805 452.011 374.547 452.095 374.311 452.157C372.067 450.3 369.458 447.03 367.343 443.501L370.552 396.91C373.054 394.789 375.915 392.848 377.907 390.492C380.067 387.951 381.071 385.174 381.711 382.262H381.778V381.942C382.715 377.348 382.799 372.534 384.959 368.175C389.34 359.306 403.09 353.124 416.622 353.937C415.345 358.127 414.471 362.429 414.013 366.784C413.626 370.638 414.58 374.958 413.519 378.7Z" fill="#87B7E4"/>
<path d="M381.799 381.903V382.223H381.732L381.799 381.903Z" fill="#87B7E4"/>
<path d="M381.799 381.903L381.732 382.223C381.092 385.134 380.088 387.911 377.928 390.453C375.937 392.809 373.076 394.75 370.574 396.87C370.584 396.841 370.584 396.81 370.574 396.781C370.556 396.629 370.528 396.479 370.489 396.332C370.489 396.203 370.445 396.079 370.422 395.906C370.422 395.821 370.422 395.715 370.383 395.608C370.046 394.083 369.479 392.619 368.7 391.266C366.175 386.93 361.3 383.827 358.372 379.681C358.372 379.681 359.696 357.83 370.877 351.183C381.479 344.899 381.799 378.268 381.799 381.903Z" fill="#87B7E4"/>
<path d="M381.799 381.903V382.223H381.732L381.799 381.903Z" fill="#87B7E4"/>
<path d="M370.552 396.781V396.91C370.552 396.91 370.513 396.719 370.468 396.349C370.506 396.491 370.534 396.635 370.552 396.781Z" fill="#87B7E4"/>
<path d="M369.553 396.91C372.043 394.789 374.938 392.82 376.935 390.47C382.545 383.855 380.38 375.401 383.976 368.147C388.352 359.289 402.113 353.113 415.639 353.921C414.354 358.108 413.479 362.411 413.024 366.767C412.621 370.65 413.585 374.964 412.525 378.722C410.803 384.77 401.619 388.439 400.503 394.638C399.51 400.13 405.597 405.258 404.593 410.834C403.521 416.825 394.803 420.135 391.594 425.42C388.974 429.723 390.203 434.654 388.845 439.237C387.202 444.763 381.479 449.644 374.024 451.95C373.788 452.028 373.53 452.112 373.289 452.174C371.045 450.317 368.436 447.046 366.316 443.512" stroke="#202020" stroke-width="2.9863" stroke-miterlimit="10"/>
<path d="M407.381 360.86C387.213 382.565 377.726 428.326 374.035 451.956C373.732 453.947 373.474 455.77 373.227 457.414" stroke="#202020" stroke-width="2.9863" stroke-miterlimit="10"/>
<path d="M409.243 470.721L399.992 525.469C399.772 526.968 399.029 528.341 397.893 529.345C396.757 530.348 395.303 530.917 393.788 530.95H345.272C343.742 530.914 342.275 530.334 341.135 529.313C339.995 528.291 339.258 526.896 339.057 525.379L330.501 470.715L409.243 470.721Z" stroke="#202020" stroke-width="2.9863" stroke-miterlimit="10"/>
<path d="M418.056 464.606C417.973 466.229 417.28 467.762 416.114 468.896C414.949 470.03 413.399 470.682 411.773 470.721H328.122C326.515 470.682 324.98 470.044 323.819 468.931C322.659 467.818 321.956 466.311 321.85 464.707C321.497 460.78 324.403 457.414 328.122 457.414H411.773C415.459 457.419 418.353 460.735 418.056 464.606Z" stroke="#202020" stroke-width="2.9863" stroke-miterlimit="10"/>
<path d="M360.851 451.198C364.442 447.636 368.84 439.692 370.787 433.207C372.391 427.86 369.569 422.357 368.919 416.87C367.909 408.282 372.172 399.047 367.679 391.261C365.171 386.919 360.296 383.833 357.368 379.676C351.976 372.019 354.047 362.223 350.602 353.825C346.389 343.553 333.166 336.389 320.173 337.343C321.415 342.226 322.257 347.202 322.692 352.221C323.079 356.709 322.131 361.713 323.175 366.066C324.818 373.079 333.637 377.326 334.72 384.512C335.674 390.863 329.834 396.809 330.793 403.277C331.825 410.211 340.19 414.043 343.281 420.192C345.794 425.179 344.616 430.901 345.918 436.197C347.55 442.817 353.334 448.634 360.851 451.198Z" stroke="#202020" stroke-width="2.9863" stroke-miterlimit="10"/>
<path d="M328.106 345.388C347.466 370.543 356.577 423.552 360.161 450.918C360.464 453.291 360.722 455.467 360.952 457.414" stroke="#202020" stroke-width="2.9863" stroke-miterlimit="10"/>
<path d="M357.357 379.676C357.357 379.676 358.687 357.825 369.862 351.183C381.037 344.541 380.801 381.763 380.801 381.763" stroke="#202020" stroke-width="2.9863" stroke-miterlimit="10"/>
<path d="M369.554 396.91C369.554 396.91 367.27 384.411 371.276 372.12" stroke="#202020" stroke-width="2.9863" stroke-miterlimit="10"/>
</svg>
