<svg width="75" height="33" viewBox="0 0 75 33" fill="none" xmlns="http://www.w3.org/2000/svg">
<path d="M19.16 31.744C19.16 31.872 19.1333 32.0213 19.08 32.192C19.0267 32.3627 18.968 32.448 18.904 32.448C18.2427 32.448 17.448 32.416 16.52 32.352C15.592 32.288 14.7547 32.256 14.008 32.256C13.2827 32.256 12.408 32.288 11.384 32.352C10.36 32.416 9.528 32.448 8.888 32.448C8.824 32.448 8.76533 32.368 8.712 32.208C8.65867 32.048 8.632 31.8933 8.632 31.744C8.632 31.5947 8.65867 31.44 8.712 31.28C8.76533 31.12 8.824 31.04 8.888 31.04C9.86933 30.912 10.5147 30.704 10.824 30.416C11.1333 30.128 11.288 29.4293 11.288 28.32V22.912C10.8613 23.5093 10.3173 23.9467 9.656 24.224C8.99467 24.5013 8.19467 24.64 7.256 24.64C5.08 24.64 3.36267 23.9253 2.104 22.496C0.845333 21.0667 0.216 19.296 0.216 17.184C0.216 14.9013 1.064 13.0293 2.76 11.568C4.456 10.1067 6.50933 9.376 8.92 9.376C10.2213 9.376 11.1867 9.552 11.816 9.904C12.4453 10.256 13.1653 10.432 13.976 10.432C14.296 10.432 14.616 10.336 14.936 10.144C15.256 9.952 15.4587 9.71733 15.544 9.44C15.5653 9.376 15.6613 9.328 15.832 9.296C16.0027 9.264 16.1307 9.248 16.216 9.248C16.3653 9.248 16.5093 9.27467 16.648 9.328C16.7867 9.38133 16.856 9.44 16.856 9.504C16.8347 9.86667 16.808 10.3093 16.776 10.832C16.744 11.3547 16.728 11.9893 16.728 12.736V28.32C16.728 29.3867 16.856 30.08 17.112 30.4C17.368 30.72 17.9653 30.9333 18.904 31.04C18.968 31.04 19.0267 31.1253 19.08 31.296C19.1333 31.4667 19.16 31.616 19.16 31.744ZM11.288 20.864V13.216C11.288 12.6613 11.1013 12.176 10.728 11.76C10.3547 11.344 9.784 11.136 9.016 11.136C8.09867 11.136 7.368 11.52 6.824 12.288C6.28 13.056 6.008 14.688 6.008 17.184C6.008 19.04 6.248 20.3787 6.728 21.2C7.208 22.0213 7.864 22.432 8.696 22.432C9.31467 22.432 9.82133 22.3147 10.216 22.08C10.6107 21.8453 10.968 21.44 11.288 20.864ZM74.0925 23.456C74.0925 23.6053 74.0658 23.76 74.0125 23.92C73.9592 24.08 73.9005 24.16 73.8365 24.16C73.1752 24.16 72.5245 24.128 71.8845 24.064C71.2445 24 70.5512 23.968 69.8045 23.968C69.0578 23.968 68.1938 24 67.2125 24.064C66.2312 24.128 65.4205 24.16 64.7805 24.16C64.7165 24.16 64.6578 24.0747 64.6045 23.904C64.5512 23.7333 64.5245 23.584 64.5245 23.456C64.5245 23.3493 64.5512 23.2107 64.6045 23.04C64.6578 22.8693 64.7165 22.7733 64.7805 22.752C65.1005 22.7093 65.3298 22.6453 65.4685 22.56C65.6072 22.4747 65.6765 22.3467 65.6765 22.176C65.6765 22.0053 65.6232 21.792 65.5165 21.536C65.4098 21.28 65.1752 20.96 64.8125 20.576L62.4765 17.984C62.3698 17.8773 62.2472 17.7973 62.1085 17.744C61.9698 17.6907 61.7832 17.664 61.5485 17.664V20.064C61.5485 21.0027 61.6552 21.6747 61.8685 22.08C62.0818 22.4853 62.4018 22.7093 62.8285 22.752C62.8925 22.752 62.9512 22.8427 63.0045 23.024C63.0578 23.2053 63.0845 23.3493 63.0845 23.456C63.0845 23.584 63.0578 23.7333 63.0045 23.904C62.9512 24.0747 62.8925 24.16 62.8285 24.16C62.1672 24.16 61.5112 24.128 60.8605 24.064C60.2098 24 59.5112 23.968 58.7645 23.968C58.0392 23.968 57.2178 24 56.3005 24.064C55.3832 24.128 54.6045 24.16 53.9645 24.16C53.9005 24.16 53.8418 24.08 53.7885 23.92C53.7352 23.76 53.7085 23.6053 53.7085 23.456C53.7085 23.3493 53.7352 23.2107 53.7885 23.04C53.8418 22.8693 53.9005 22.7733 53.9645 22.752C54.7538 22.6667 55.3085 22.464 55.6285 22.144C55.9485 21.824 56.1085 21.1307 56.1085 20.064V6.848C56.1085 6.016 55.9432 5.46133 55.6125 5.184C55.2818 4.90667 54.7325 4.72533 53.9645 4.64C53.9005 4.61867 53.8418 4.528 53.7885 4.368C53.7352 4.208 53.7085 4.07467 53.7085 3.968C53.7085 3.86133 53.7352 3.728 53.7885 3.568C53.8418 3.408 53.9005 3.328 53.9645 3.328C54.9885 3.09333 56.1138 2.74667 57.3405 2.288C58.5672 1.82933 59.5858 1.408 60.3965 1.024C60.4605 0.981332 60.5672 0.927999 60.7165 0.863998C60.8658 0.799999 60.9938 0.768 61.1005 0.768C61.3565 0.768 61.5432 0.815999 61.6605 0.911999C61.7778 1.008 61.8258 1.09867 61.8045 1.184C61.7618 1.93067 61.7085 2.848 61.6445 3.936C61.5805 5.024 61.5485 5.90933 61.5485 6.592V16.256C61.6978 16.256 61.8472 16.2347 61.9965 16.192C62.1458 16.1493 62.2952 16.064 62.4445 15.936L65.3565 13.536C65.7832 13.1733 66.0818 12.8747 66.2525 12.64C66.4232 12.4053 66.5085 12.2027 66.5085 12.032C66.5085 11.8187 66.4072 11.6533 66.2045 11.536C66.0018 11.4187 65.5912 11.328 64.9725 11.264C64.9085 11.264 64.8498 11.1787 64.7965 11.008C64.7432 10.8373 64.7165 10.688 64.7165 10.56C64.7165 10.432 64.7432 10.2827 64.7965 10.112C64.8498 9.94133 64.9085 9.856 64.9725 9.856C65.6552 9.856 66.2898 9.888 66.8765 9.952C67.4632 10.016 68.0658 10.048 68.6845 10.048C69.1752 10.048 69.7085 10.016 70.2845 9.952C70.8605 9.888 71.4685 9.856 72.1085 9.856C72.1725 9.856 72.2312 9.94133 72.2845 10.112C72.3378 10.2827 72.3645 10.432 72.3645 10.56C72.3645 10.6667 72.3378 10.8107 72.2845 10.992C72.2312 11.1733 72.1725 11.264 72.1085 11.264C71.5752 11.3067 70.9352 11.488 70.1885 11.808C69.4418 12.128 68.5458 12.704 67.5005 13.536L65.9645 14.816L70.7325 20.576C71.3298 21.216 71.8845 21.728 72.3965 22.112C72.9085 22.496 73.3885 22.7093 73.8365 22.752C73.9005 22.752 73.9592 22.8427 74.0125 23.024C74.0658 23.2053 74.0925 23.3493 74.0925 23.456Z" fill="#E85A34"/>
<path d="M39.85 22.72C39.85 22.8693 39.8233 23.008 39.77 23.136C39.7167 23.264 39.658 23.328 39.594 23.328C38.9327 23.392 37.962 23.5413 36.682 23.776C35.402 24.0107 34.4207 24.2347 33.738 24.448C33.674 24.448 33.5673 24.4747 33.418 24.528C33.2687 24.5813 33.1193 24.608 32.97 24.608C32.7993 24.608 32.666 24.56 32.57 24.464C32.474 24.368 32.426 24.288 32.426 24.224L32.266 21.984C31.7753 22.8587 31.1247 23.5147 30.314 23.952C29.5033 24.3893 28.522 24.608 27.37 24.608C25.706 24.608 24.426 24.128 23.53 23.168C22.634 22.208 22.186 20.8533 22.186 19.104V13.952C22.186 12.992 22.0207 12.3573 21.69 12.048C21.3593 11.7387 20.7673 11.5947 19.914 11.616C19.85 11.616 19.7913 11.5413 19.738 11.392C19.6847 11.2427 19.658 11.0933 19.658 10.944C19.658 10.7947 19.6847 10.6347 19.738 10.464C19.7913 10.2933 19.85 10.208 19.914 10.208C20.6393 10.208 21.7807 10.1333 23.338 9.984C24.8953 9.83467 26.0793 9.664 26.89 9.472C27.082 9.408 27.2527 9.45067 27.402 9.6C27.5513 9.74933 27.626 9.856 27.626 9.92V19.744C27.626 20.576 27.802 21.2 28.154 21.616C28.506 22.032 29.0447 22.24 29.77 22.24C30.282 22.24 30.7407 22.0373 31.146 21.632C31.5513 21.2267 31.882 20.704 32.138 20.064V13.952C32.138 13.0347 31.9727 12.4107 31.642 12.08C31.3113 11.7493 30.7087 11.5947 29.834 11.616C29.77 11.616 29.7113 11.536 29.658 11.376C29.6047 11.216 29.578 11.072 29.578 10.944C29.578 10.7947 29.6047 10.6347 29.658 10.464C29.7113 10.2933 29.77 10.208 29.834 10.208C30.538 10.208 31.6793 10.144 33.258 10.016C34.8367 9.888 36.0313 9.728 36.842 9.536C37.034 9.472 37.1993 9.51467 37.338 9.664C37.4767 9.81333 37.546 9.92 37.546 9.984V19.744C37.546 20.6613 37.6687 21.2533 37.914 21.52C38.1593 21.7867 38.7193 21.952 39.594 22.016C39.658 22.016 39.7167 22.1067 39.77 22.288C39.8233 22.4693 39.85 22.6133 39.85 22.72ZM49.8653 4.032C49.8653 4.84267 49.5773 5.536 49.0013 6.112C48.4253 6.688 47.7426 6.976 46.9533 6.976C46.1639 6.976 45.4813 6.688 44.9053 6.112C44.3293 5.536 44.0413 4.84267 44.0413 4.032C44.0413 3.24267 44.3293 2.56 44.9053 1.984C45.4813 1.408 46.1639 1.12 46.9533 1.12C47.7426 1.12 48.4253 1.408 49.0013 1.984C49.5773 2.56 49.8653 3.24267 49.8653 4.032ZM52.2653 23.456C52.2653 23.584 52.2386 23.7333 52.1853 23.904C52.1319 24.0747 52.0733 24.16 52.0093 24.16C51.3479 24.16 50.5213 24.1333 49.5293 24.08C48.5373 24.0267 47.6679 24 46.9213 24C46.1959 24 45.3959 24.0267 44.5213 24.08C43.6466 24.1333 42.8893 24.16 42.2493 24.16C42.1853 24.16 42.1266 24.0747 42.0733 23.904C42.0199 23.7333 41.9933 23.584 41.9933 23.456C41.9933 23.3493 42.0199 23.2107 42.0733 23.04C42.1266 22.8693 42.1853 22.7733 42.2493 22.752C43.0386 22.6667 43.5986 22.4533 43.9293 22.112C44.2599 21.7707 44.4253 21.088 44.4253 20.064V15.264C44.4253 14.4107 44.2599 13.856 43.9293 13.6C43.5986 13.344 43.0386 13.1733 42.2493 13.088C42.1853 13.0667 42.1266 12.976 42.0733 12.816C42.0199 12.656 41.9933 12.5227 41.9933 12.416C41.9933 12.3093 42.0199 12.1707 42.0733 12C42.1266 11.8293 42.1853 11.744 42.2493 11.744C43.2733 11.5307 44.4253 11.184 45.7053 10.704C46.9853 10.224 47.9773 9.81333 48.6813 9.472C48.7453 9.42933 48.8519 9.376 49.0013 9.312C49.1506 9.248 49.2786 9.216 49.3853 9.216C49.6413 9.216 49.8279 9.25867 49.9453 9.344C50.0626 9.42933 50.1106 9.52533 50.0893 9.632C50.0466 10.3787 49.9933 11.2853 49.9293 12.352C49.8653 13.4187 49.8333 14.3147 49.8333 15.04V20.064C49.8333 21.0667 50.0039 21.7493 50.3453 22.112C50.6866 22.4747 51.2413 22.688 52.0093 22.752C52.0733 22.752 52.1319 22.8427 52.1853 23.024C52.2386 23.2053 52.2653 23.3493 52.2653 23.456Z" fill="#ED804D"/>
</svg>
