<svg width="561" height="561" viewBox="0 0 561 561" fill="none" xmlns="http://www.w3.org/2000/svg">
<path d="M506.332 440.158H346.318H357.404L458.608 438.986C477.317 437.359 490.501 419.008 483.393 401.634C482.164 398.633 483.449 397.797 481.929 394.902C466.019 364.945 438.434 340.541 407.176 326.365C407.95 326.219 408.73 326.112 409.526 326.006C403.705 323.091 397.71 320.537 391.574 318.359C388.32 317.198 385.027 316.149 381.74 315.229C365.577 310.674 343.738 312.755 336.86 330.651C331.076 345.675 338.756 363.823 353.202 370.403L379.148 380.322C378.929 379.997 378.733 379.671 378.531 379.329L401.094 387.951C401.543 388.265 401.884 388.708 402.073 389.221C402.262 389.734 402.289 390.293 402.152 390.822C402.014 391.351 401.719 391.826 401.304 392.182C400.89 392.538 400.376 392.759 399.832 392.815L345.034 398.801C337.135 399.598 327.244 402.902 321.421 408.338C317.174 412.265 313.595 417.612 313.629 424.377C310.047 424.647 306.487 425.147 302.97 425.875C297.601 427.031 292.137 429.022 291.75 432.293C290.987 438.857 300.316 440.192 306.196 440.192L268.99 440.046C272.984 440.046 273.478 440.012 276.126 437.376C278.774 434.739 281.736 432.708 281.736 428.714L282.061 415.912C282.061 413.275 282.69 411.143 280.053 411.143H256.491C257.45 411.17 258.397 410.919 259.218 410.421C260.039 409.924 260.698 409.201 261.119 408.338C261.138 408.318 261.15 408.293 261.153 408.265C262.331 406.077 262.6 402.93 262.381 399.951L262.656 398.975L263.363 396.372L278.331 387.564C278.443 387.499 278.552 387.428 278.656 387.351C286.465 382.577 287.441 374.044 284.765 366.415C284.709 366.269 284.676 366.14 284.619 366.016C284.496 365.691 284.384 365.382 284.244 365.074C283.529 363.334 282.644 361.669 281.601 360.103C277.736 354.067 272.126 349.147 266.797 347.862C265.302 347.525 263.774 347.355 262.241 347.358C280.788 329.967 302.156 314.511 327.396 309.372C349.479 304.81 372.317 305.405 394.132 311.111C419.624 317.894 442.58 331.975 460.785 350.993C485.289 376.558 496.75 406.425 506.332 440.158Z" fill="#202020"/>
<path d="M257.024 363.296C256.145 365.028 254.705 366.412 252.94 367.223C251.433 367.981 249.837 368.546 248.189 368.906C245.473 369.36 244.514 367.644 242.781 365.961C241.793 365.006 240.656 364.218 239.415 363.627C238.671 363.262 237.856 363.066 237.028 363.054C236.199 363.041 235.378 363.212 234.624 363.554C234.113 363.782 233.679 364.153 233.374 364.621C233.07 365.09 232.908 365.638 232.907 366.196C233.019 368.255 235.858 369.882 237.462 370.735C239.557 371.724 241.734 372.528 243.97 373.136C249.451 374.819 240.323 378.325 238.405 378.544C234.301 379.1 230.136 379.001 226.063 378.252C227.233 380.865 228.129 383.591 228.739 386.387C229.373 389.063 230.113 392.283 229.592 394.976C228.958 398.14 226.82 400.49 224.184 402.083L213.934 359.324C217.714 357.524 221.824 356.524 226.008 356.387C230.192 356.25 234.359 356.979 238.248 358.527C239.545 359.006 240.952 359.101 242.301 358.803C243.651 358.504 244.886 357.825 245.861 356.844L246.91 355.829C248.37 355.511 249.893 355.632 251.285 356.177C253.771 357.114 258.371 360.126 257.024 363.296Z" fill="#D7E7F9"/>
<path d="M267.55 411.11H225.228C224.8 415.102 222.911 418.795 219.924 421.478C216.938 424.162 213.064 425.646 209.049 425.645H66.768C66.777 429.493 68.3096 433.181 71.0305 435.902C73.7513 438.622 77.4388 440.155 81.2867 440.164H267.539C271.387 440.151 275.074 438.617 277.796 435.898C280.519 433.178 282.056 429.493 282.074 425.645V415.884C282.074 414.618 281.571 413.403 280.676 412.508C279.78 411.613 278.566 411.11 277.3 411.11H267.55Z" stroke="#202020" stroke-width="1.65186" stroke-miterlimit="10"/>
<path d="M202.192 316.2C203.442 317.922 204.34 319.874 204.834 321.944L224.885 405.533C225.327 407.348 225.443 409.227 225.227 411.082C224.799 415.074 222.91 418.767 219.923 421.451C216.936 424.134 213.063 425.618 209.048 425.617H64.1245C60.4651 425.615 56.9134 424.381 54.0406 422.115C51.1678 419.849 49.1413 416.682 48.2873 413.124L28.2596 329.535C27.6811 327.14 27.654 324.646 28.1802 322.239C28.7064 319.833 29.7722 317.577 31.2973 315.643C32.8224 313.708 34.7668 312.145 36.984 311.072C39.2012 309.998 41.6332 309.442 44.0966 309.445H188.997C191.378 309.442 193.729 309.964 195.885 310.973C198.041 311.982 199.947 313.455 201.468 315.285L202.192 316.2Z" stroke="#202020" stroke-width="1.65186" stroke-miterlimit="10"/>
<path d="M131.883 390.45C140.137 387.847 144.456 378.219 141.531 368.943C138.607 359.668 129.546 354.258 121.293 356.86C113.04 359.462 108.72 369.091 111.645 378.366C114.569 387.642 123.63 393.052 131.883 390.45Z" fill="#87B7E4"/>
<path d="M410.319 325.518C397.534 327.655 387.705 333.501 381.108 345.601C375.2 356.429 374.51 369.64 380.81 380.383L355.088 370.521C340.194 363.699 334.954 348.541 340.923 332.973C348.02 314.427 370.538 312.272 387.206 316.996C390.6 317.95 393.988 319.038 397.343 320.239C401.726 321.809 406.051 323.569 410.319 325.518Z" fill="#202020"/>
<path d="M110.761 309.457C120.965 296.27 135.037 286.604 151.007 281.81C148.879 276.097 147.191 270.228 145.958 264.257C132.707 199.809 174.148 136.803 238.579 123.513C303.01 110.223 366.038 151.647 379.323 216.078C380.808 223.298 381.634 230.638 381.791 238.008C386.394 236.375 391.105 235.062 395.889 234.081C452.197 222.44 507.287 258.669 518.911 314.988C522.191 330.823 521.732 347.206 517.571 362.832C513.41 378.459 505.66 392.9 494.939 405.006" stroke="#CCDDE2" stroke-width="1.65186" stroke-miterlimit="10"/>
<path d="M251.208 411.116H255.185C256.329 411.143 257.463 410.904 258.498 410.417C259.533 409.93 260.441 409.209 261.148 408.311C261.167 408.289 261.18 408.265 261.188 408.238C262.614 406.287 263.265 403.875 263.011 401.472L262.686 398.942L262.416 396.9L263.392 396.339L278.685 387.318L279.718 386.723C287.184 382.331 287.723 374.14 284.795 366.382C284.744 366.241 284.705 366.112 284.654 365.983C284.525 365.658 284.396 365.355 284.273 365.046C283.524 363.322 282.64 361.661 281.631 360.075C277.765 354.033 272.161 349.12 266.826 347.835C265.332 347.494 263.804 347.324 262.27 347.33C259.073 347.33 255.538 347.942 253.682 349.787C273.518 330.27 296.693 311.953 324.569 306.27C346.663 301.716 369.509 302.322 391.328 308.043C416.82 314.825 439.799 328.924 458.003 347.942C458.963 348.94 459.899 349.95 460.808 350.982C483.624 376.059 498.177 407.733 507.371 440.147" stroke="#202020" stroke-width="1.65186" stroke-miterlimit="10"/>
<path d="M258.203 440.164H532.7" stroke="#202020" stroke-width="1.65186" stroke-miterlimit="10"/>
<path d="M327.307 440.158H358.453" stroke="#202020" stroke-width="1.10124" stroke-miterlimit="10"/>
<path d="M353.344 370.258C338.892 363.677 331.218 345.529 336.996 330.511C343.885 312.609 365.725 310.528 381.876 315.083C385.175 316.007 388.453 317.051 391.71 318.214C428.024 331.117 461.022 357.905 479.041 391.845C480.562 394.717 481.773 397.668 483.002 400.675C484.658 404.715 485.341 409.087 484.996 413.44C484.65 417.792 483.286 422.002 481.014 425.73C478.741 429.458 475.624 432.599 471.913 434.9C468.202 437.201 464.003 438.597 459.653 438.975L358.454 440.158H327.308C324.556 440.159 321.873 439.298 319.635 437.696C317.398 436.094 315.718 433.833 314.831 431.227C311.414 421.129 315.83 413.511 321.411 408.322C327.235 402.914 334.831 399.822 342.729 399.026L399.581 393.281C400.125 393.226 400.64 393.005 401.056 392.648C401.471 392.292 401.768 391.818 401.906 391.288C402.045 390.759 402.018 390.2 401.83 389.686C401.642 389.172 401.302 388.727 400.855 388.412L353.344 370.258Z" stroke="#202020" stroke-width="1.65186" stroke-miterlimit="10"/>
<path d="M336.395 410.055C331.205 413.04 325.87 417.713 324.086 423.631C322.033 430.448 326.852 436.641 332.327 440.186" stroke="#202020" stroke-width="1.65186" stroke-miterlimit="10"/>
<path d="M341.961 417.875C337.119 422.481 332.923 428.321 335.722 435.266C336.523 437.172 337.77 438.858 339.358 440.181" stroke="#202020" stroke-width="1.65186" stroke-miterlimit="10"/>
<path d="M351.458 426.885C351.458 426.885 340.311 435.171 347.391 440.142" stroke="#202020" stroke-width="1.65186" stroke-miterlimit="10"/>
<path d="M322.847 439.367L323.043 440.164H305.058C299.178 440.164 291.033 439.261 291.801 432.697C292.57 426.133 313.624 424.344 313.624 424.344" stroke="#202020" stroke-width="1.65186" stroke-miterlimit="10"/>
<path d="M290.585 232.97L252.308 238.698L258.978 243.399L271.454 253.39C273.407 254.765 272.919 258.007 274.001 259.976C274.413 262.948 273.946 265.976 272.658 268.686C271.37 271.395 269.318 273.67 266.754 275.228C264.191 276.787 261.227 277.562 258.229 277.458C255.23 277.353 252.328 276.374 249.878 274.641L219.781 253.469C216.458 251.175 213.792 248.054 212.045 244.414C209.582 232.156 217.138 218.524 231.68 216.364L273.519 210.081L267.348 205.29L248.347 190.502C246.719 189.242 245.361 187.668 244.353 185.874C243.93 182.837 244.424 179.741 245.772 176.987C247.12 174.232 249.26 171.943 251.918 170.413C254.575 168.882 257.629 168.18 260.688 168.398C263.747 168.614 266.672 169.74 269.087 171.63L302.983 197.997C305.755 200.126 307.996 202.868 309.529 206.008C311.841 217.856 304.447 230.888 290.585 232.97Z" fill="#D7E7F9"/>
<path d="M262.422 396.894C262.422 396.894 261.255 386.628 257.3 383.009" stroke="#202020" stroke-width="1.65186" stroke-miterlimit="10"/>
<path d="M213.542 360.042C217.361 358.166 221.531 357.112 225.783 356.947C230.034 356.783 234.274 357.512 238.226 359.088C239.524 359.567 240.933 359.663 242.285 359.365C243.636 359.066 244.874 358.386 245.85 357.405L253.665 349.753" stroke="#202020" stroke-width="1.65186" stroke-miterlimit="10"/>
<path d="M238.384 403.654L244.908 406.588C245.053 406.648 245.209 406.677 245.366 406.673C245.524 406.668 245.678 406.631 245.82 406.563C245.961 406.496 246.087 406.399 246.189 406.279C246.291 406.16 246.367 406.021 246.412 405.87L247.438 403.547" stroke="#202020" stroke-width="1.65186" stroke-miterlimit="10"/>
<path d="M239.45 390.695C239.997 391.951 240.186 393.332 239.998 394.688C239.81 396.044 239.252 397.322 238.384 398.381" stroke="#202020" stroke-width="1.10124" stroke-miterlimit="10"/>
<path d="M254.248 411.11C255.275 409.589 255.269 405.915 255.006 404.439C254.837 403.503 253.261 403.166 253.093 404.108C252.633 406.739 249.665 410.784 246.922 411.11" stroke="#202020" stroke-width="1.65186" stroke-miterlimit="10"/>
<path d="M241.075 401.191C245.701 401.191 249.45 397.441 249.45 392.816C249.45 388.19 245.701 384.44 241.075 384.44C236.449 384.44 232.699 388.19 232.699 392.816C232.699 397.441 236.449 401.191 241.075 401.191Z" stroke="#202020" stroke-width="1.65186" stroke-miterlimit="10"/>
<path d="M238.271 400.703L236.779 404.9C235.743 404.53 234.644 404.369 233.545 404.424C232.447 404.48 231.37 404.752 230.376 405.223C229.383 405.696 228.492 406.359 227.755 407.175C227.018 407.992 226.449 408.946 226.081 409.982" stroke="#202020" stroke-width="1.65186" stroke-miterlimit="10"/>
<path opacity="0.53" d="M241.076 399.907C244.993 399.907 248.167 396.732 248.167 392.816C248.167 388.899 244.993 385.725 241.076 385.725C237.16 385.725 233.985 388.899 233.985 392.816C233.985 396.732 237.16 399.907 241.076 399.907Z" fill="white"/>
<path d="M224.15 402.633C226.787 401.04 228.919 398.706 229.553 395.531C230.08 392.832 229.34 389.618 228.706 386.942C228.096 384.145 227.2 381.419 226.03 378.807C230.103 379.554 234.269 379.651 238.372 379.093C240.285 378.88 249.418 375.391 243.937 373.691C241.702 373.084 239.526 372.279 237.435 371.284C235.819 370.448 232.986 368.821 232.885 366.757C232.878 366.199 233.034 365.651 233.332 365.18C233.631 364.709 234.06 364.335 234.568 364.103C235.323 363.763 236.145 363.593 236.973 363.608C237.801 363.623 238.616 363.821 239.359 364.188C240.603 364.773 241.741 365.561 242.725 366.521C244.464 368.204 245.412 369.887 248.139 369.455C249.785 369.101 251.378 368.535 252.879 367.772C254.648 366.963 256.091 365.579 256.974 363.845C258.332 360.687 253.721 357.674 251.219 356.771C249.828 356.225 248.309 356.1 246.848 356.412" stroke="#202020" stroke-width="1.65186" stroke-miterlimit="10"/>
<path d="M290.585 232.97L252.308 238.698L258.979 243.399L267.607 249.458C269.3 250.605 270.748 252.078 271.866 253.791C272.985 255.504 273.75 257.422 274.119 259.434C274.487 261.446 274.452 263.511 274.013 265.51C273.575 267.507 272.742 269.398 271.565 271.071C270.388 272.744 268.889 274.165 267.157 275.253C265.424 276.34 263.492 277.071 261.474 277.403C259.455 277.736 257.391 277.663 255.401 277.189C253.411 276.714 251.536 275.848 249.885 274.641L219.787 253.469C216.464 251.175 213.798 248.054 212.051 244.414C205.65 231.124 213.134 213.425 229.857 210.928L263.051 205.958L267.349 205.29L248.348 190.502C246.752 189.261 245.417 187.717 244.418 185.959C243.42 184.202 242.777 182.264 242.527 180.258C242.276 178.252 242.424 176.216 242.961 174.267C243.498 172.318 244.413 170.494 245.655 168.898C246.896 167.303 248.44 165.968 250.198 164.969C251.956 163.97 253.893 163.327 255.899 163.078C257.905 162.828 259.941 162.975 261.89 163.512C263.839 164.048 265.663 164.964 267.259 166.205L301.155 192.572C305.493 195.872 308.466 200.652 309.508 206.003C311.842 217.857 304.448 230.889 290.585 232.97Z" stroke="#202020" stroke-width="1.65186" stroke-miterlimit="10"/>
<path d="M206.568 298.04L206.198 288.262L201.861 292.705C201.125 293.457 200.122 293.886 199.07 293.899C198.018 293.911 197.005 293.506 196.251 292.772C195.499 292.037 195.07 291.033 195.057 289.982C195.045 288.93 195.45 287.916 196.184 287.162L203.954 279.23C204.754 278.41 205.778 277.844 206.897 277.6C208.017 277.357 209.183 277.447 210.252 277.859C211.321 278.272 212.245 278.989 212.911 279.922C213.576 280.854 213.953 281.961 213.996 283.106L214.36 293.081L217.558 289.474C217.904 289.082 218.323 288.763 218.792 288.535C219.262 288.306 219.772 288.172 220.293 288.14C220.814 288.109 221.336 288.181 221.83 288.352C222.323 288.523 222.778 288.79 223.168 289.137C223.559 289.483 223.878 289.902 224.107 290.371C224.336 290.84 224.47 291.35 224.502 291.871C224.533 292.392 224.462 292.914 224.292 293.408C224.122 293.901 223.856 294.357 223.51 294.747L217.21 301.855C216.406 302.772 215.345 303.426 214.165 303.732C212.984 304.038 211.738 303.982 210.59 303.57C209.443 303.159 208.445 302.411 207.727 301.425C207.01 300.439 206.606 299.259 206.568 298.04Z" fill="#87B7E4"/>
<path d="M239.074 315.678L243.691 314.646L241.195 312.963C240.772 312.677 240.479 312.236 240.38 311.737C240.281 311.236 240.385 310.717 240.667 310.292C240.952 309.869 241.394 309.576 241.894 309.478C242.395 309.381 242.914 309.486 243.338 309.771L247.792 312.75C248.254 313.058 248.614 313.495 248.83 314.006C249.045 314.518 249.106 315.082 249.004 315.627C248.901 316.173 248.641 316.676 248.255 317.076C247.869 317.474 247.375 317.751 246.833 317.872L242.104 318.938L244.106 320.144C244.322 320.274 244.511 320.445 244.66 320.649C244.81 320.851 244.918 321.082 244.979 321.327C245.039 321.572 245.05 321.826 245.012 322.076C244.974 322.325 244.888 322.564 244.757 322.78C244.494 323.216 244.069 323.53 243.574 323.653C243.08 323.776 242.557 323.698 242.12 323.437L238.193 321.064C237.688 320.762 237.286 320.315 237.038 319.781C236.79 319.248 236.708 318.652 236.803 318.071C236.897 317.491 237.165 316.952 237.57 316.525C237.975 316.098 238.499 315.803 239.074 315.678Z" fill="#87B7E4"/>
<path d="M227.4 342.645L227.776 339.56L226.188 340.738C226.055 340.837 225.904 340.909 225.743 340.95C225.582 340.991 225.415 340.999 225.251 340.975C225.087 340.951 224.929 340.895 224.786 340.81C224.644 340.725 224.52 340.613 224.421 340.48C224.222 340.211 224.138 339.874 224.186 339.543C224.234 339.212 224.411 338.914 224.679 338.713L227.484 336.609C227.776 336.391 228.126 336.264 228.489 336.243C228.853 336.222 229.215 336.308 229.53 336.491C229.846 336.674 230.1 336.945 230.263 337.271C230.426 337.597 230.489 337.964 230.446 338.326L230.065 341.479L231.248 340.502C231.376 340.397 231.524 340.318 231.682 340.269C231.841 340.221 232.008 340.205 232.173 340.22C232.338 340.237 232.499 340.285 232.645 340.363C232.792 340.442 232.921 340.548 233.027 340.676C233.132 340.804 233.211 340.952 233.259 341.111C233.308 341.269 233.325 341.436 233.308 341.601C233.292 341.767 233.244 341.927 233.165 342.073C233.087 342.22 232.981 342.349 232.853 342.455L230.519 344.373C230.22 344.611 229.858 344.755 229.477 344.786C229.097 344.818 228.716 344.736 228.382 344.551C228.048 344.367 227.776 344.087 227.602 343.747C227.427 343.408 227.357 343.025 227.4 342.645Z" fill="#87B7E4"/>
<path d="M410.318 325.905L410.083 326.304C409.904 326.191 409.716 326.094 409.522 326.012L410.318 325.905Z" fill="#202020"/>
</svg>
