<svg width="561" height="561" viewBox="0 0 561 561" fill="none" xmlns="http://www.w3.org/2000/svg">
<path d="M297.891 140.289C297.891 140.289 368.016 101.457 404.532 150.539C441.047 199.621 386.445 237.954 434.416 266.834C482.387 295.714 445.339 351.136 488.833 369.548C532.327 387.96 519.413 467.515 468.435 485.871" stroke="#D7E8F0" stroke-width="1.67564" stroke-miterlimit="10"/>
<path d="M97.7156 429.529C97.581 430.09 97.4688 430.606 97.3734 431.162C97.1434 432.317 96.9302 433.49 96.7787 434.679C93.4127 459.492 104.307 484.378 119.567 503.424" stroke="#D7E8F0" stroke-width="1.67564" stroke-miterlimit="10"/>
<path d="M341.521 145.417H128.335C102.194 145.417 81.0034 166.608 81.0034 192.749V393.446C81.0034 419.587 102.194 440.778 128.335 440.778H341.521C367.661 440.778 388.852 419.587 388.852 393.446V192.749C388.852 166.608 367.661 145.417 341.521 145.417Z" fill="#87B7E4"/>
<path d="M338.383 141.103H126.982C99.1062 141.103 76.5085 163.7 76.5085 191.576V390.304C76.5085 418.18 99.1062 440.777 126.982 440.777H338.383C366.259 440.777 388.857 418.18 388.857 390.304V191.576C388.857 163.7 366.259 141.103 338.383 141.103Z" stroke="#202020" stroke-width="1.67564" stroke-miterlimit="10"/>
<path d="M335.467 151.223H134.387C108.246 151.223 87.0558 172.414 87.0558 198.555V387.634C87.0558 413.775 108.246 434.966 134.387 434.966H335.467C361.607 434.966 382.798 413.775 382.798 387.634V198.555C382.798 172.414 361.607 151.223 335.467 151.223Z" fill="#87B7E4"/>
<path d="M347.859 166.118H285.936C277.521 166.118 270.683 173.467 270.683 182.516V347.938C270.683 357.004 277.521 364.358 285.936 364.358H347.859C356.274 364.358 363.141 357.004 363.141 347.938V182.516C363.141 173.467 356.297 166.118 347.859 166.118ZM355.932 343.332C355.932 350.894 350.244 357.004 343.209 357.004H290.598C283.563 357.004 277.875 350.894 277.875 343.332V187.161C277.875 179.604 283.563 173.489 290.598 173.489H343.197C350.232 173.489 355.921 179.604 355.921 187.161L355.932 343.332Z" fill="#CCDDE2"/>
<path d="M208.271 374.933L117.518 373.626C116.542 373.61 115.612 373.206 114.932 372.505C114.253 371.803 113.88 370.861 113.894 369.884C113.894 369.548 113.943 369.213 114.04 368.891C114.272 368.123 114.748 367.45 115.396 366.976C116.044 366.501 116.828 366.25 117.631 366.26L208.384 367.595C207.695 368.645 207.307 369.863 207.262 371.118C207.225 372.46 207.576 373.785 208.271 374.933Z" fill="#87B7E4"/>
<path d="M230.269 372.555C230.037 373.324 229.563 373.998 228.917 374.475C228.27 374.952 227.487 375.208 226.684 375.203L220.131 375.107C220.833 374.011 221.215 372.741 221.234 371.44C221.254 370.139 220.911 368.858 220.244 367.741L226.796 367.837C227.772 367.854 228.702 368.258 229.382 368.959C230.063 369.66 230.438 370.602 230.426 371.578C230.421 371.909 230.369 372.239 230.269 372.555Z" fill="#CCDDE2"/>
<path d="M230.055 387.168C229.824 387.936 229.351 388.608 228.705 389.083C228.059 389.557 227.277 389.809 226.475 389.8L136.284 388.481C137.285 387.296 137.854 385.807 137.899 384.257C137.942 383.182 137.729 382.113 137.277 381.138L226.576 382.428C227.552 382.447 228.48 382.851 229.159 383.552C229.838 384.253 230.212 385.194 230.201 386.17C230.201 386.508 230.152 386.844 230.055 387.168Z" fill="#CCDDE2"/>
<path d="M125.44 388.318L117.311 388.212C116.336 388.198 115.406 387.798 114.726 387.1C114.045 386.401 113.67 385.462 113.682 384.487C113.683 384.144 113.734 383.805 113.833 383.477C114.06 382.709 114.533 382.037 115.178 381.564C115.824 381.091 116.607 380.842 117.407 380.857L124.649 380.975C124.232 381.853 123.995 382.808 123.954 383.78C123.891 385.421 124.419 387.031 125.44 388.318Z" fill="#87B7E4"/>
<path d="M201.847 404.212L117.641 402.989C116.667 402.965 115.74 402.559 115.063 401.86C114.385 401.16 114.009 400.221 114.017 399.247C114.021 398.915 114.074 398.586 114.174 398.271C114.405 397.501 114.879 396.827 115.525 396.349C116.171 395.872 116.955 395.617 117.758 395.623L201.835 396.862C201.148 397.965 200.783 399.238 200.783 400.537C200.783 401.836 201.148 403.11 201.835 404.212H201.847Z" fill="#87B7E4"/>
<path d="M230.409 401.951C230.178 402.721 229.703 403.395 229.053 403.869C228.403 404.343 227.617 404.591 226.813 404.576L213.613 404.374L201.832 404.211C201.144 403.109 200.779 401.836 200.779 400.537C200.779 399.238 201.144 397.965 201.832 396.862L213.815 397.042L226.919 397.227C227.893 397.243 228.821 397.644 229.5 398.342C230.179 399.04 230.554 399.978 230.544 400.952C230.55 401.29 230.505 401.626 230.409 401.951Z" fill="#CCDDE2"/>
<path d="M220.131 375.107C219.307 376.398 218.081 377.382 216.642 377.907C215.204 378.432 213.633 378.469 212.171 378.012C210.709 377.554 209.439 376.629 208.555 375.378C207.672 374.127 207.225 372.62 207.284 371.09C207.315 370.173 207.526 369.272 207.906 368.438C208.286 367.603 208.826 366.852 209.497 366.226C210.168 365.601 210.955 365.114 211.814 364.793C212.673 364.473 213.587 364.325 214.504 364.358C215.42 364.388 216.323 364.598 217.157 364.977C217.993 365.357 218.745 365.897 219.37 366.568C219.996 367.239 220.483 368.028 220.803 368.887C221.123 369.747 221.27 370.661 221.236 371.578C221.188 372.832 220.807 374.05 220.131 375.107Z" fill="white"/>
<g opacity="0.72">
<path opacity="0.72" d="M217.5 370.821C217.347 371.66 216.957 372.439 216.378 373.065C216.097 373.383 215.787 373.674 215.452 373.935C215.273 374.064 214.33 374.832 214.128 374.737C212.871 374.103 211.278 372.493 211.082 370.939C211.051 370.695 211.051 370.448 211.082 370.204C211.152 369.778 211.375 369.392 211.708 369.118C212.041 368.843 212.462 368.699 212.894 368.712C213.173 368.725 213.445 368.802 213.689 368.937C213.933 369.072 214.143 369.262 214.302 369.492C214.548 369.185 214.887 368.966 215.267 368.87C215.648 368.773 216.049 368.803 216.412 368.955C216.774 369.107 217.077 369.374 217.274 369.713C217.471 370.053 217.552 370.447 217.505 370.838L217.5 370.821Z" fill="white"/>
</g>
<path d="M136.284 388.481C135.619 389.279 134.782 389.918 133.837 390.351C132.893 390.785 131.863 391.001 130.824 390.986C129.785 390.97 128.762 390.722 127.831 390.261C126.899 389.8 126.083 389.136 125.44 388.319C124.415 387.028 123.888 385.411 123.954 383.763C123.995 382.791 124.232 381.837 124.649 380.958C125.241 379.744 126.171 378.727 127.328 378.03C128.484 377.333 129.818 376.986 131.168 377.031C132.469 377.07 133.731 377.477 134.811 378.202C135.891 378.927 136.745 379.943 137.272 381.132C137.725 382.108 137.938 383.177 137.895 384.251C137.853 385.803 137.285 387.295 136.284 388.481Z" fill="white"/>
<g opacity="0.72">
<path opacity="0.72" d="M134.174 383.505C134.021 384.344 133.631 385.123 133.052 385.749C132.772 386.07 132.46 386.361 132.12 386.619C131.941 386.748 130.998 387.522 130.802 387.421C129.54 386.787 127.952 385.177 127.756 383.623C127.725 383.379 127.725 383.132 127.756 382.888C127.827 382.463 128.05 382.077 128.383 381.803C128.716 381.529 129.136 381.384 129.568 381.396C129.847 381.409 130.119 381.486 130.363 381.621C130.607 381.756 130.817 381.946 130.976 382.175C131.222 381.868 131.561 381.649 131.943 381.553C132.324 381.456 132.726 381.486 133.089 381.639C133.452 381.792 133.754 382.059 133.951 382.4C134.148 382.741 134.228 383.137 134.179 383.527L134.174 383.505Z" fill="white"/>
</g>
<path d="M213.612 404.375C212.773 405.644 211.544 406.605 210.109 407.112C208.674 407.619 207.113 407.644 205.663 407.184C204.213 406.722 202.953 405.801 202.074 404.559C201.195 403.317 200.746 401.823 200.793 400.302C200.84 399.085 201.199 397.901 201.837 396.863C202.476 395.841 203.367 395.001 204.426 394.424C205.484 393.848 206.674 393.555 207.879 393.573C209.084 393.591 210.264 393.92 211.305 394.527C212.346 395.136 213.212 396.002 213.82 397.042C214.487 398.179 214.814 399.484 214.762 400.801C214.713 402.075 214.316 403.311 213.612 404.375Z" fill="white"/>
<g opacity="0.72">
<path opacity="0.72" d="M211.026 400.043C210.875 400.884 210.485 401.662 209.904 402.287C209.623 402.607 209.311 402.898 208.973 403.157C208.793 403.292 207.851 404.06 207.655 403.959C206.392 403.325 204.805 401.715 204.608 400.161C204.575 399.917 204.575 399.67 204.608 399.426C204.663 399.075 204.824 398.749 205.067 398.49C205.311 398.231 205.627 398.052 205.974 397.976C206.322 397.899 206.683 397.93 207.013 398.063C207.343 398.195 207.625 398.424 207.823 398.719C208.07 398.414 208.409 398.198 208.789 398.102C209.169 398.006 209.571 398.037 209.932 398.188C210.294 398.34 210.597 398.605 210.795 398.944C210.994 399.282 211.076 399.676 211.032 400.066L211.026 400.043Z" fill="white"/>
</g>
<path d="M113.199 183.514L113.356 205.029C113.395 208.779 114.883 212.37 117.508 215.049C120.133 217.727 123.694 219.287 127.443 219.401L148.761 219.772C150.589 219.795 152.404 219.452 154.098 218.762C155.791 218.072 157.329 217.05 158.621 215.755C159.913 214.461 160.932 212.921 161.618 211.226C162.305 209.531 162.644 207.715 162.617 205.887L162.455 184.378C162.422 180.623 160.936 177.027 158.31 174.344C155.684 171.66 152.121 170.097 148.368 169.983L127.05 169.607C125.22 169.584 123.404 169.929 121.709 170.62C120.015 171.312 118.476 172.336 117.185 173.633C115.893 174.93 114.875 176.473 114.191 178.17C113.506 179.867 113.169 181.684 113.199 183.514Z" fill="white"/>
<path d="M116.475 188.911L116.588 204.484C116.622 207.743 117.916 210.862 120.197 213.19C122.478 215.517 125.571 216.872 128.829 216.972L147.342 217.292C148.932 217.316 150.51 217.019 151.983 216.422C153.456 215.824 154.795 214.937 155.919 213.813C157.043 212.689 157.93 211.35 158.527 209.877C159.125 208.404 159.421 206.825 159.398 205.236V204.181C156.8 198.869 151.74 190.919 146.343 195.671C138.562 202.51 135 197.304 130.467 190.594C126.646 184.978 120.891 180.877 116.475 188.911Z" fill="#87B7E4"/>
<path d="M151.272 186.765C153.621 185.205 154.226 181.986 152.624 179.576C151.023 177.166 147.821 176.477 145.473 178.037C143.125 179.597 142.519 182.816 144.12 185.226C145.722 187.637 148.924 188.326 151.272 186.765Z" fill="#87B7E4"/>
<path d="M231.351 212.467C228.022 212.464 224.774 213.492 222.053 215.41C219.332 217.328 217.272 220.041 216.156 223.177C215.04 226.313 214.922 229.718 215.82 232.924C216.718 236.129 218.586 238.978 221.169 241.078L184.513 306.827C184.253 306.787 183.99 306.761 183.727 306.749C183.054 306.759 182.386 306.863 181.741 307.057L154.275 272.949C155.49 271.255 156.174 269.238 156.24 267.154C156.305 265.07 155.749 263.014 154.643 261.247C153.536 259.48 151.929 258.082 150.026 257.231C148.123 256.38 146.009 256.115 143.955 256.468C141.9 256.822 139.997 257.779 138.488 259.217C136.979 260.655 135.931 262.51 135.48 264.545C135.028 266.581 135.191 268.705 135.95 270.646C136.708 272.589 138.027 274.261 139.739 275.451L120.503 330.204C118.82 330.303 117.223 330.981 115.984 332.124C114.745 333.267 113.94 334.803 113.706 336.473C113.472 338.142 113.823 339.841 114.701 341.28C115.578 342.72 116.926 343.811 118.517 344.368C120.108 344.926 121.843 344.914 123.427 344.337C125.01 343.759 126.345 342.651 127.204 341.2C128.063 339.75 128.393 338.047 128.137 336.381C127.882 334.715 127.057 333.188 125.804 332.061L145.046 277.308C145.282 277.308 145.512 277.341 145.748 277.341C147.181 277.342 148.599 277.05 149.916 276.483L177.36 310.586C176.761 311.687 176.46 312.925 176.486 314.178C176.511 315.43 176.863 316.655 177.505 317.731C178.148 318.807 179.059 319.696 180.15 320.313C181.242 320.929 182.474 321.25 183.727 321.245C185.088 321.252 186.424 320.874 187.58 320.156C188.737 319.436 189.666 318.405 190.261 317.181C190.857 315.957 191.095 314.589 190.948 313.236C190.799 311.883 190.273 310.599 189.427 309.531L226.083 243.805C228.296 244.571 230.649 244.845 232.98 244.609C235.31 244.372 237.56 243.631 239.574 242.436C241.589 241.241 243.319 239.621 244.643 237.689C245.966 235.757 246.854 233.56 247.242 231.25C247.63 228.94 247.51 226.574 246.89 224.316C246.271 222.057 245.166 219.961 243.653 218.173C242.14 216.385 240.256 214.948 238.132 213.963C236.006 212.977 233.692 212.467 231.351 212.467Z" fill="white"/>
<path d="M480.058 396.694C480.019 396.52 479.98 396.352 479.924 396.178C478.111 389.696 474.379 383.913 469.22 379.589C469.158 379.556 469.085 379.494 469.023 379.455C468.547 379.113 468.047 378.782 467.548 378.456C466.875 378.035 466.179 377.632 465.489 377.228C465.431 377.187 465.366 377.155 465.298 377.132C462.628 375.888 460.086 374.385 457.708 372.644L457.59 372.566C454.381 370.434 451.481 367.954 449.478 364.515C449.433 364.443 449.396 364.366 449.366 364.285C449.327 364.285 449.327 364.224 449.31 364.207C447.464 361.402 446.348 358.328 446.578 355.135V355.04C446.017 349.834 446.578 344.353 446.365 339.068C446.365 338.743 446.365 338.418 446.309 338.087C446.252 337.756 446.252 337.357 446.23 337.032C446.25 336.925 446.25 336.814 446.23 336.707C446.154 335.662 446.019 334.623 445.826 333.593C444.003 323.714 437.658 314.912 429.894 308.707C429.718 308.558 429.531 308.423 429.333 308.303C420.626 301.919 411.095 299.439 404.851 298.48C404.793 298.472 404.735 298.472 404.677 298.48C402.332 298.306 400.105 298.345 398.046 297.88C398.006 297.88 397.967 297.88 397.95 297.88C395.646 297.433 393.591 296.146 392.183 294.267C391.651 293.584 391.176 292.858 390.764 292.096C390.707 292.053 390.665 291.992 390.646 291.922C389.029 289.406 387.963 286.577 387.516 283.619C387.46 283.333 387.381 283.058 387.342 282.772C385.995 276.377 385.956 269.42 385.923 263.67C385.401 254.812 381.463 243.395 374.618 235.267C374.618 235.267 374.618 235.227 374.579 235.227C372.595 233.243 370.36 231.525 367.931 230.117C361.79 226.678 354.739 225.209 347.735 225.909C347.735 225.909 347.735 225.909 347.696 225.909C347.685 225.906 347.674 225.906 347.662 225.909C343.354 226.273 339.18 227.586 335.438 229.752C334.063 230.542 332.762 231.455 331.55 232.478C324.257 238.739 320.078 248.523 318.922 258.172C318.827 258.918 318.771 259.653 318.732 260.416C318.712 260.505 318.712 260.597 318.732 260.686C317.822 261.925 317.283 263.399 317.178 264.932C317.074 266.634 317.484 268.328 318.355 269.794C319.225 271.261 320.515 272.432 322.058 273.157V273.308C322.058 273.807 322.058 274.329 322.058 274.828C322.171 278.242 322.914 281.605 324.252 284.747C326.496 290.048 330.496 296.101 337.278 297.061C338.484 297.233 339.697 297.343 340.913 297.392L344.122 311.114L346.871 323.007C358.86 316.185 373.698 314.126 386.36 318.109H386.399C392.327 319.906 397.711 323.155 402.062 327.562C416.132 339.035 431.969 393.637 432.917 397.02C432.921 397.06 432.935 397.099 432.957 397.132C432.957 397.132 432.957 397.132 432.957 397.171C432.957 397.21 432.957 397.227 432.996 397.267C433.037 397.426 433.095 397.581 433.17 397.727C433.226 397.901 433.288 398.074 433.361 398.248L433.765 399.286C436.57 406.529 445.624 430.141 447.638 435.97C450.045 442.853 451.924 443.392 451.924 443.392C452.027 443.368 452.126 443.329 452.216 443.274L452.597 443.123C458.674 440.662 464.308 437.228 469.281 432.957C469.321 432.957 469.321 432.957 469.321 432.918C473.925 428.238 477.265 422.464 479.026 416.139C480.969 409.842 481.324 403.162 480.058 396.694Z" fill="white"/>
<path d="M325.049 255.945C325.049 255.945 326.513 231.418 349.419 225.651C372.325 219.884 385.979 246.509 387.006 263.58C388.033 280.652 387.006 292.438 399.045 297.801C399.045 297.801 433.827 297.381 446.629 329.346C446.629 329.346 448.363 344.998 447.656 355.074C446.949 365.149 459.521 373.985 466.371 377.099C473.22 380.212 485.13 392.863 481.893 413.524C478.657 434.186 453.002 443.375 453.002 443.375C453.002 443.375 451.111 442.814 448.71 435.942C446.309 429.07 434.018 397.188 434.018 397.188C434.018 397.188 417.642 339.405 403.107 327.579C395.107 321.06 386.529 318.11 380.88 314.676C374.928 311.058 372.066 307.069 370.081 304.511C366.204 299.524 359.332 291.989 364.302 274.217C369.273 256.444 364.263 265.404 359.584 262.902C359.584 262.902 353.784 253.926 345.032 260.276C336.28 266.627 338.412 251.165 338.412 251.165L334.569 256.338C334.569 256.338 328.544 257.533 325.049 255.945Z" fill="#87B7E4"/>
<path d="M267.834 289.369C268.081 289.022 268.395 288.657 268.658 288.292C268.922 287.928 269.253 287.58 269.562 287.232C270.565 286.151 271.651 285.15 272.81 284.236C273.174 283.945 273.539 283.675 273.904 283.412L267.834 289.369Z" fill="#87B7E4"/>
<path d="M94.7753 536.877H76.857C74.1081 536.877 71.2863 536.877 68.7505 535.755C66.2148 534.633 64.2625 532.625 62.4056 530.628C49.4578 516.962 41.0035 507.01 28.05 493.304L32.3921 488.816C34.7719 486.811 37.8074 485.754 40.9177 485.847C44.028 485.941 46.9947 487.178 49.2502 489.321L67.6005 507.346L94.7753 536.877Z" fill="#87B7E4"/>
<path d="M348.026 464.256C339.114 466.182 330.159 468.014 321.16 469.753C310.55 471.811 299.936 473.823 289.318 475.79L279.416 463.678L263.147 480.553C233.953 485.789 204.702 490.696 175.396 495.273L175.53 495.139L252.146 417.827C257.382 412.539 263.977 408.8 271.204 407.024C278.43 405.246 286.008 405.5 293.099 407.757L323.275 417.384C328.262 434.525 336.683 450.472 348.026 464.256Z" fill="white"/>
<path d="M325.628 357.509C321.841 370.619 320.955 384.571 322.514 398.501C322.888 402.073 323.449 405.626 324.197 409.16C324.888 412.694 325.774 416.172 326.772 419.651C331.303 435.204 338.556 449.829 348.197 462.848C347.816 462.926 347.451 463.021 347.12 463.094C336.242 449.576 328.141 434.042 323.283 417.384C322.318 414.018 321.477 410.652 320.803 407.286C320.13 403.92 319.569 400.448 319.188 397.009C317.69 383.573 318.554 370.12 322.206 357.492C324.889 348.188 329.72 339.645 336.309 332.55C337.953 330.766 339.739 329.119 341.65 327.624L341.746 327.551L342.054 327.321L342.189 327.203C343.991 325.833 345.886 324.589 347.86 323.478C352.172 321.022 356.811 319.19 361.639 318.037C358.38 319.14 355.233 320.551 352.242 322.25C350.193 323.407 348.226 324.704 346.357 326.132L346.222 326.244L345.914 326.474H345.88L345.785 326.547C343.803 328.092 341.951 329.795 340.248 331.641C333.423 339.005 328.416 347.863 325.628 357.509Z" fill="#202020"/>
<path d="M386.872 420.929C386.872 420.929 402.479 440.761 415.483 464.44C399.954 458.157 368.471 460.513 355.848 461.826C354.172 461.907 352.503 462.094 350.85 462.387C350.745 462.389 350.642 462.402 350.541 462.426C350.504 462.43 350.466 462.43 350.429 462.426C349.621 462.584 348.869 462.718 348.185 462.87C338.545 449.851 331.291 435.225 326.76 419.673C325.762 416.194 324.876 412.716 324.185 409.182C323.495 405.648 322.895 402.085 322.502 398.523C320.943 384.593 321.829 370.641 325.616 357.531C328.41 347.883 333.425 339.024 340.258 331.663C341.962 329.817 343.814 328.114 345.795 326.569L345.891 326.496H345.924L346.233 326.266L346.367 326.154C348.237 324.726 350.204 323.429 352.252 322.272C355.244 320.573 358.39 319.162 361.649 318.059C370.221 315.983 379.231 316.045 387.36 318.62H387.399C392.184 320.987 397.761 323.753 403.062 328.078C410.54 335.725 414.495 346.03 418.265 356.061C423.471 369.899 428.692 383.722 433.928 397.53C433.931 397.572 433.945 397.612 433.968 397.648C433.968 397.648 433.968 397.648 433.968 397.687C433.968 397.726 433.968 397.743 434.007 397.782C434.047 397.942 434.106 398.096 434.181 398.242C434.234 398.42 434.298 398.594 434.371 398.764C399.747 391.527 386.872 420.929 386.872 420.929Z" fill="#202020"/>
<path d="M341.65 327.624C339.738 329.111 337.95 330.751 336.303 332.527C329.714 339.623 324.883 348.166 322.2 357.469C318.548 370.097 317.684 383.55 319.181 396.986C318.738 397.233 318.279 397.446 317.818 397.676C308.17 402.383 297.504 405.844 286.666 405.766C280.722 405.701 274.862 404.354 269.486 401.817C264.11 399.281 259.344 395.614 255.514 391.068C249.46 383.898 245.634 375.231 242.807 366.384C239.828 357.043 237.562 347.663 233.87 338.575C231.508 332.785 229.147 326.289 224.053 322.216C221.438 320.14 218.168 319.411 215.576 317.335C212.823 315.123 210.829 312.107 209.871 308.707C209.448 307.243 209.177 305.739 209.063 304.219C208.58 298.222 210.185 291.956 212.154 286.402L202.106 279.636C199.374 277.79 198.179 273.796 199.795 270.929C200.258 270.11 200.893 269.401 201.656 268.852C202.419 268.301 203.293 267.923 204.216 267.743C205.074 267.58 205.955 267.593 206.808 267.781C207.66 267.968 208.466 268.328 209.175 268.837L229.932 283.748C229.932 283.748 231.531 278.582 236.428 280.175C241.006 281.673 257.303 288.074 256.742 307.832C256.665 310.843 257.46 313.812 259.031 316.382L278.52 348.628C279.901 350.91 281.745 352.876 283.933 354.4C286.121 355.925 288.605 356.973 291.223 357.479C293.841 357.984 296.537 357.935 299.135 357.334C301.733 356.734 304.176 355.594 306.307 353.991L340.421 328.55L341.65 327.624Z" fill="white"/>
<path d="M348.034 336.678L325.033 393.564L319.115 396.33L309.252 400.924C317.151 368.616 306.313 353.553 306.313 353.553L334.873 332.235C335.294 332.392 335.715 332.527 336.158 332.679C342.037 334.62 348.034 336.678 348.034 336.678Z" fill="#202020"/>
<path d="M360.078 461.036C350.065 463.515 358.137 461.636 348.067 463.807" stroke="#202020" stroke-width="1.67564" stroke-miterlimit="10"/>
<path d="M457.597 459.694C456.519 456.85 455.442 454.006 454.388 451.162L454.27 450.87C442.302 419.08 430.317 387.307 418.315 355.55C414.545 345.537 410.59 335.214 403.112 327.568C387.528 311.658 360.027 313.172 342.249 326.743L342.115 326.855L341.997 326.934C339.974 328.501 338.084 330.233 336.348 332.112C329.758 339.209 324.927 347.754 322.244 357.059C317.649 372.913 317.459 390.074 320.842 406.854C321.509 410.253 322.356 413.614 323.316 416.952C328.306 434.092 336.729 450.039 348.072 463.823C339.153 465.742 330.197 467.575 321.206 469.321C272.777 478.708 224.187 487.202 175.436 494.802C146.107 499.396 115.033 504.339 85.6254 508.266L74.4054 509.651C73.1768 509.806 71.9286 509.685 70.7528 509.296C69.5764 508.909 68.5015 508.263 67.6061 507.407L49.2502 489.349C46.9947 487.205 44.028 485.968 40.9177 485.875C37.8074 485.782 34.7719 486.839 32.3921 488.844L28.05 493.332C41.0035 507.037 49.4578 516.989 62.4113 530.695C64.2962 532.692 66.2373 534.728 68.7562 535.822C71.2751 536.916 74.1137 536.944 76.8626 536.944H92.9297C106.517 536.944 120.112 536.944 133.714 536.944L409.126 537C420.408 537 432.071 536.927 442.416 532.411C447.407 530.205 451.898 527.008 455.616 523.014" stroke="#202020" stroke-width="1.67564" stroke-miterlimit="10"/>
<path d="M364.65 387.898L460.643 530.459C461.981 532.446 463.788 534.074 465.902 535.2C468.017 536.326 470.375 536.915 472.771 536.916H514.572C516.208 536.916 517.778 536.266 518.935 535.109C520.092 533.952 520.743 532.382 520.743 530.745C520.743 529.109 520.092 527.539 518.935 526.382C517.778 525.225 516.208 524.574 514.572 524.574H494.858C491.674 524.575 488.562 523.624 485.922 521.844C483.283 520.064 481.235 517.535 480.042 514.583L453.288 448.475" stroke="#202020" stroke-width="1.67564" stroke-miterlimit="10"/>
<path d="M175.431 494.802L175.565 494.667L252.187 417.384C257.423 412.096 264.017 408.354 271.242 406.572C278.468 404.791 286.045 405.038 293.14 407.286L323.31 416.918" stroke="#202020" stroke-width="1.67564" stroke-miterlimit="10"/>
<path d="M457.861 459.79L457.592 459.695" stroke="#202020" stroke-width="1.67564" stroke-miterlimit="10"/>
<path d="M289.47 475.47L279.462 463.229L263.019 480.249" stroke="#202020" stroke-width="1.67564" stroke-miterlimit="10"/>
<path d="M404.514 329.375V329.357" stroke="#202020" stroke-width="1.67564" stroke-miterlimit="10"/>
<path d="M470.902 525.825C473.42 525.732 475.941 525.812 478.448 526.067C480.495 526.274 482.633 526.398 484.568 527.351C486.178 528.148 487.856 530.061 487.771 532.4C487.62 536.967 482.835 536.933 480.215 536.933" stroke="#202020" stroke-width="1.67564" stroke-miterlimit="10"/>
<path d="M471.908 536.916H480.211H480.329H505.748" stroke="#202020" stroke-width="1.67564" stroke-miterlimit="10"/>
<path d="M319.209 396.543C319.209 396.543 319.152 396.543 319.13 396.582C318.709 396.812 318.283 397.019 317.845 397.233C315.046 398.61 312.178 399.842 309.251 400.924C302.025 403.634 294.396 405.412 286.693 405.322C280.748 405.256 274.887 403.909 269.511 401.372C264.134 398.836 259.367 395.17 255.535 390.624C249.482 383.454 245.661 374.787 242.834 365.94C239.855 356.599 237.589 347.219 233.897 338.131C231.535 332.347 229.168 325.851 224.08 321.772C221.466 319.697 218.195 318.967 215.603 316.892C212.85 314.678 210.854 311.663 209.892 308.264C209.474 306.799 209.205 305.295 209.09 303.776C208.607 297.778 210.212 291.518 212.181 285.964L202.128 279.198C199.401 277.352 198.201 273.358 199.822 270.491C200.285 269.672 200.92 268.963 201.683 268.413C202.446 267.863 203.319 267.485 204.243 267.305C205.101 267.142 205.982 267.155 206.835 267.343C207.687 267.531 208.493 267.89 209.202 268.399L229.959 283.31C229.959 283.31 231.558 278.144 236.455 279.737C241.028 281.235 257.325 287.636 256.769 307.394C256.692 310.405 257.487 313.374 259.058 315.944L278.542 348.196C279.923 350.473 281.767 352.436 283.953 353.958C286.139 355.48 288.62 356.526 291.235 357.031C293.851 357.536 296.544 357.487 299.139 356.888C301.735 356.289 304.176 355.153 306.306 353.553L334.866 332.235L340.42 328.106L341.766 327.108L342.075 326.878L342.21 326.765" stroke="#202020" stroke-width="1.67564" stroke-miterlimit="10"/>
<path d="M230.01 283.26C230.01 283.26 226.773 291.142 237.937 296.393" stroke="#202020" stroke-width="1.67564" stroke-miterlimit="10"/>
<path d="M210.403 291.894C210.403 291.894 209.281 301.431 221.954 304.993C226.442 306.256 230.077 301.066 227.345 297.296L227.21 297.123" stroke="#202020" stroke-width="1.67564" stroke-miterlimit="10"/>
<path d="M209.062 303.669C209.062 303.669 213.292 311.955 220.282 311.035C226.453 310.221 224.209 304.191 224.209 304.191" stroke="#202020" stroke-width="1.67564" stroke-miterlimit="10"/>
<path d="M212.192 285.914L219.558 290.878" stroke="#202020" stroke-width="1.67564" stroke-miterlimit="10"/>
<path d="M451.605 443.858C465.798 439.437 475.835 430.579 480.11 416.144C484.205 402.31 481.54 386.58 468.603 378.467C462.158 374.468 454.545 371.343 450.545 364.493C445.086 355.124 448.767 343.697 446.882 333.559C444.924 323.035 437.844 313.711 429.356 307.462C423.064 302.854 415.749 299.839 408.038 298.676C402.344 297.818 397.16 299.237 393.267 294.188C387.096 286.217 387.051 273.19 387 263.591C386.967 256.22 385.228 248.882 381.435 242.56L381.351 242.419C378.343 237.323 374.097 233.066 369.009 230.044C359.472 224.523 346.092 224.013 336.471 229.69C335.098 230.51 333.799 231.449 332.589 232.495C323.697 240.108 319.445 252.972 319.652 264.427" stroke="#202020" stroke-width="1.67564" stroke-miterlimit="10"/>
<path d="M337.721 250.425C337.228 253.791 335.175 256.91 331.55 257.847C327.433 258.89 325.25 262.896 324.095 266.924C322.449 272.83 322.875 279.121 325.301 284.752C327.545 290.048 331.556 296.107 338.333 297.094C350.737 298.862 356.902 293.633 356.902 293.633" stroke="#202020" stroke-width="1.67564" stroke-miterlimit="10"/>
<path d="M348.056 268.45C349.234 268.45 350.188 267.495 350.188 266.318C350.188 265.14 349.234 264.186 348.056 264.186C346.879 264.186 345.924 265.14 345.924 266.318C345.924 267.495 346.879 268.45 348.056 268.45Z" fill="#202020"/>
<path d="M329.329 267.042C330.506 267.042 331.46 266.088 331.46 264.91C331.46 263.733 330.506 262.778 329.329 262.778C328.152 262.778 327.197 263.733 327.197 264.91C327.197 266.088 328.152 267.042 329.329 267.042Z" fill="#202020"/>
<path d="M337.722 250.425C337.246 252.451 337.317 254.567 337.93 256.557C338.026 256.881 338.15 257.196 338.3 257.499C339.775 260.977 343.214 263.743 349.307 263.401C362.569 262.666 367.298 261.802 366.221 267.917C365.772 270.065 365.128 272.168 364.297 274.2C362.838 278.06 361.823 284.713 363.32 291.939V291.978C365.048 300.432 375.029 313.779 388.84 318.581" stroke="#202020" stroke-width="1.67564" stroke-miterlimit="10"/>
<path d="M338.889 266.834C338.889 266.834 336.645 275.013 336.875 276.22C337.105 277.426 339.966 276.494 339.966 276.494" stroke="#202020" stroke-width="1.67564" stroke-miterlimit="10"/>
<path d="M340.431 283.984C344.711 286.295 349.67 284.837 351.611 280.971" stroke="#202020" stroke-width="1.67564" stroke-miterlimit="10"/>
<path d="M358.543 274.805C362.224 270.905 361.971 264.686 357.976 260.915C353.982 257.144 347.758 257.249 344.077 261.149C340.395 265.049 340.649 271.268 344.644 275.039C348.639 278.809 354.861 278.705 358.543 274.805Z" stroke="#202020" stroke-width="1.67564" stroke-miterlimit="10"/>
<path d="M333.703 272.528C337.385 268.629 337.131 262.41 333.136 258.639C329.141 254.868 322.919 254.973 319.237 258.873C315.556 262.773 315.809 268.991 319.804 272.762C323.799 276.533 330.022 276.428 333.703 272.528Z" stroke="#202020" stroke-width="1.67564" stroke-miterlimit="10"/>
<path d="M326.26 258.874C326.468 258.874 326.681 258.874 326.894 258.902C328.716 259.074 330.4 259.947 331.591 261.337C332.782 262.727 333.387 264.524 333.278 266.352C333.179 268.031 332.438 269.608 331.209 270.756C329.98 271.905 328.357 272.537 326.675 272.523C326.462 272.523 326.248 272.511 326.036 272.489C324.214 272.318 322.53 271.446 321.339 270.057C320.148 268.668 319.543 266.871 319.652 265.045C319.749 263.364 320.49 261.786 321.721 260.637C322.951 259.488 324.577 258.856 326.26 258.874ZM326.26 257.432C324.214 257.422 322.242 258.193 320.746 259.588C319.25 260.983 318.342 262.896 318.21 264.938C318.078 267.14 318.807 269.308 320.243 270.982C321.679 272.657 323.71 273.709 325.907 273.914C326.162 273.941 326.418 273.954 326.675 273.953C328.715 273.962 330.682 273.194 332.177 271.805C333.671 270.416 334.58 268.51 334.72 266.475C334.852 264.273 334.123 262.105 332.686 260.431C331.25 258.756 329.219 257.705 327.023 257.499C326.77 257.472 326.515 257.459 326.26 257.46V257.432Z" fill="white"/>
<path d="M341.492 267.07L336.28 266.593" stroke="#202020" stroke-width="1.67564" stroke-miterlimit="10"/>
<path d="M351.096 260.943C351.313 260.944 351.53 260.955 351.746 260.977C353.621 261.158 355.354 262.057 356.58 263.487C357.807 264.917 358.432 266.765 358.327 268.646C358.222 270.376 357.457 271.999 356.19 273.181C354.922 274.363 353.249 275.013 351.516 274.996C351.303 274.996 351.079 274.996 350.866 274.968C348.99 274.788 347.257 273.887 346.03 272.457C344.803 271.026 344.178 269.176 344.285 267.294C344.39 265.564 345.155 263.941 346.423 262.759C347.69 261.577 349.363 260.928 351.096 260.943ZM351.096 259.502C349 259.491 346.979 260.282 345.446 261.711C343.914 263.141 342.985 265.101 342.849 267.193C342.709 269.451 343.454 271.674 344.925 273.392C346.397 275.111 348.479 276.189 350.731 276.399C350.992 276.426 351.254 276.439 351.516 276.438C353.612 276.449 355.633 275.658 357.166 274.229C358.698 272.799 359.627 270.838 359.763 268.747C359.903 266.494 359.162 264.274 357.697 262.557C356.232 260.839 354.157 259.758 351.909 259.541C351.648 259.514 351.386 259.501 351.124 259.502H351.096Z" fill="white"/>
<path d="M332.674 271.558C335.833 268.212 335.615 262.877 332.188 259.642C328.761 256.407 323.423 256.497 320.264 259.843C317.106 263.189 317.324 268.523 320.751 271.758C324.177 274.993 329.516 274.903 332.674 271.558Z" fill="#87B7E4"/>
<path d="M357.549 273.855C360.723 270.494 360.504 265.134 357.062 261.884C353.619 258.635 348.256 258.725 345.083 262.086C341.909 265.448 342.128 270.807 345.57 274.057C349.013 277.307 354.376 277.217 357.549 273.855Z" fill="#87B7E4"/>
<path d="M348.061 323.675L345.155 311.126L342.002 297.6" stroke="#202020" stroke-width="1.67564" stroke-miterlimit="10"/>
<path d="M532.949 536.894H35.1962" stroke="#202020" stroke-width="1.67564" stroke-miterlimit="10"/>
</svg>
